<svg width="267" height="50" viewBox="0 0 267 50" fill="none" xmlns="http://www.w3.org/2000/svg">
<g clip-path="url(#clip0_1_4684)">
<path d="M38.9778 16.25L32.3816 12.2656C32.3816 12.2656 35.23 18.125 36.1295 20.1562C36.5042 21.0156 37.0289 22.0313 37.4037 23.0469C37.6286 23.75 37.7036 24.6875 37.7036 25.0781C37.7036 25.625 37.5536 27.0313 36.1295 27.8906L11.9932 42.2656C12.218 42.5781 13.2674 43.0469 14.2419 43.3594C17.9898 44.5312 21.4378 44.2969 24.8109 42.2656L39.2777 33.5156C42.126 31.7969 43.8501 28.75 44 25.3906C44.1499 21.6406 42.0511 18.125 38.9778 16.25Z" fill="black"/>
<path d="M9.44463 43.6719C8.84497 43.5156 8.17036 43.125 7.94549 42.9688C7.49574 42.6562 6.37138 41.875 6.37138 40.1563V11.7188C5.47189 12.1094 4.19762 12.9687 3.59796 13.5156C1.64906 15 0 18.125 0 21.7187V42.2656C0 42.7344 0.0749574 43.2031 0.29983 43.6719C2.32368 47.8906 5.92164 50 9.51959 50C11.1687 50 12.8177 49.5312 14.2419 48.6719L19.1141 45.7812C19.1141 45.7812 13.7922 44.9219 12.0681 44.4531C11.3186 44.2188 10.1193 43.8281 9.44463 43.6719Z" fill="black"/>
<path d="M27.0596 9.14162L14.4668 1.40725C11.6184 -0.311504 8.02044 -0.545879 5.0971 1.09475C1.87394 2.8135 0 6.17287 0 9.84475V16.0947C0 16.0947 3.37308 11.1729 4.87223 9.53225C5.84668 8.51662 7.12095 7.42287 7.72061 7.03225C8.02044 6.876 8.77002 6.5635 9.51959 6.5635C9.96934 6.5635 10.494 6.64162 11.0937 7.03225L32.9063 20.3135C32.9813 19.9229 32.9813 19.2979 32.9813 18.5947C32.6065 14.6104 30.3578 11.0947 27.0596 9.14162Z" fill="black"/>
</g>
<path d="M75.94 8.7L80.11 23.25L84.22 8.7H90.37L83.02 30H77.2L69.76 8.7H75.94ZM91.5963 12.9V8.1H97.2963V12.9H91.5963ZM91.5963 30V14.22H97.2963V30H91.5963ZM99.3402 22.08C99.3402 20.52 99.6302 19.13 100.21 17.91C100.81 16.67 101.63 15.7 102.67 15C103.71 14.28 104.9 13.92 106.24 13.92C107.26 13.92 108.2 14.16 109.06 14.64C109.92 15.1 110.57 15.74 111.01 16.56V8.1H116.71V23.7C116.71 24.24 116.79 24.62 116.95 24.84C117.11 25.04 117.39 25.16 117.79 25.2V30C116.81 30.2 116.01 30.3 115.39 30.3C113.45 30.3 112.33 29.57 112.03 28.11L111.91 27.54C111.37 28.5 110.64 29.2 109.72 29.64C108.8 30.08 107.82 30.3 106.78 30.3C105.34 30.3 104.06 29.95 102.94 29.25C101.82 28.55 100.94 27.58 100.3 26.34C99.6602 25.1 99.3402 23.68 99.3402 22.08ZM111.04 23.88V21.06C110.78 20.36 110.37 19.8 109.81 19.38C109.27 18.94 108.7 18.72 108.1 18.72C107.28 18.72 106.59 19.06 106.03 19.74C105.49 20.42 105.22 21.24 105.22 22.2C105.22 23.18 105.51 23.98 106.09 24.6C106.67 25.2 107.42 25.5 108.34 25.5C109.4 25.5 110.3 24.96 111.04 23.88ZM127.901 30.3C126.061 30.3 124.491 29.93 123.191 29.19C121.911 28.45 120.931 27.47 120.251 26.25C119.591 25.03 119.261 23.72 119.261 22.32C119.261 20.8 119.591 19.41 120.251 18.15C120.911 16.87 121.881 15.85 123.161 15.09C124.441 14.31 126.021 13.92 127.901 13.92C129.781 13.92 131.361 14.3 132.641 15.06C133.921 15.82 134.891 16.82 135.551 18.06C136.211 19.3 136.541 20.65 136.541 22.11C136.541 22.73 136.491 23.31 136.391 23.85H125.321C125.381 24.69 125.691 25.3 126.251 25.68C126.811 26.04 127.421 26.22 128.081 26.22C128.701 26.22 129.281 26.08 129.821 25.8C130.381 25.52 130.751 25.13 130.931 24.63L135.761 26.01C135.121 27.27 134.131 28.3 132.791 29.1C131.451 29.9 129.821 30.3 127.901 30.3ZM125.201 20.43H130.421C130.341 19.67 130.061 19.07 129.581 18.63C129.121 18.19 128.531 17.97 127.811 17.97C127.091 17.97 126.501 18.19 126.041 18.63C125.581 19.07 125.301 19.67 125.201 20.43ZM146.183 30.3C144.303 30.3 142.723 29.92 141.443 29.16C140.163 28.38 139.193 27.37 138.533 26.13C137.873 24.89 137.543 23.55 137.543 22.11C137.543 20.65 137.873 19.3 138.533 18.06C139.193 16.82 140.163 15.82 141.443 15.06C142.723 14.3 144.303 13.92 146.183 13.92C148.063 13.92 149.643 14.3 150.923 15.06C152.203 15.82 153.173 16.82 153.833 18.06C154.493 19.3 154.823 20.65 154.823 22.11C154.823 23.55 154.493 24.89 153.833 26.13C153.173 27.37 152.203 28.38 150.923 29.16C149.643 29.92 148.063 30.3 146.183 30.3ZM143.393 22.11C143.393 23.15 143.653 23.98 144.173 24.6C144.713 25.2 145.383 25.5 146.183 25.5C147.003 25.5 147.673 25.2 148.193 24.6C148.713 23.98 148.973 23.15 148.973 22.11C148.973 21.05 148.713 20.22 148.193 19.62C147.673 19.02 147.003 18.72 146.183 18.72C145.383 18.72 144.713 19.02 144.173 19.62C143.653 20.22 143.393 21.05 143.393 22.11ZM179.149 24.9V30H163.969V8.7H178.879V13.8H169.819V16.8H177.559V21.54H169.819V24.9H179.149ZM180.405 22.08C180.405 20.52 180.695 19.13 181.275 17.91C181.875 16.67 182.695 15.7 183.735 15C184.775 14.28 185.965 13.92 187.305 13.92C188.325 13.92 189.265 14.16 190.125 14.64C190.985 15.1 191.635 15.74 192.075 16.56V8.1H197.775V23.7C197.775 24.24 197.855 24.62 198.015 24.84C198.175 25.04 198.455 25.16 198.855 25.2V30C197.875 30.2 197.075 30.3 196.455 30.3C194.515 30.3 193.395 29.57 193.095 28.11L192.975 27.54C192.435 28.5 191.705 29.2 190.785 29.64C189.865 30.08 188.885 30.3 187.845 30.3C186.405 30.3 185.125 29.95 184.005 29.25C182.885 28.55 182.005 27.58 181.365 26.34C180.725 25.1 180.405 23.68 180.405 22.08ZM192.105 23.88V21.06C191.845 20.36 191.435 19.8 190.875 19.38C190.335 18.94 189.765 18.72 189.165 18.72C188.345 18.72 187.655 19.06 187.095 19.74C186.555 20.42 186.285 21.24 186.285 22.2C186.285 23.18 186.575 23.98 187.155 24.6C187.735 25.2 188.485 25.5 189.405 25.5C190.465 25.5 191.365 24.96 192.105 23.88ZM201.196 12.9V8.1H206.896V12.9H201.196ZM201.196 30V14.22H206.896V30H201.196ZM220.85 29.13C220.05 29.47 219.19 29.76 218.27 30C217.37 30.22 216.48 30.33 215.6 30.33C214.74 30.33 213.95 30.19 213.23 29.91C212.51 29.61 211.93 29.13 211.49 28.47C211.07 27.79 210.86 26.88 210.86 25.74V18.51H208.91V14.22H210.86V9.27H216.56V14.22H219.65V18.51H216.56V23.73C216.56 24.25 216.67 24.62 216.89 24.84C217.11 25.04 217.41 25.14 217.79 25.14C218.07 25.14 218.39 25.09 218.75 24.99C219.11 24.89 219.47 24.77 219.83 24.63L220.85 29.13ZM230.06 30.3C228.18 30.3 226.6 29.92 225.32 29.16C224.04 28.38 223.07 27.37 222.41 26.13C221.75 24.89 221.42 23.55 221.42 22.11C221.42 20.65 221.75 19.3 222.41 18.06C223.07 16.82 224.04 15.82 225.32 15.06C226.6 14.3 228.18 13.92 230.06 13.92C231.94 13.92 233.52 14.3 234.8 15.06C236.08 15.82 237.05 16.82 237.71 18.06C238.37 19.3 238.7 20.65 238.7 22.11C238.7 23.55 238.37 24.89 237.71 26.13C237.05 27.37 236.08 28.38 234.8 29.16C233.52 29.92 231.94 30.3 230.06 30.3ZM227.27 22.11C227.27 23.15 227.53 23.98 228.05 24.6C228.59 25.2 229.26 25.5 230.06 25.5C230.88 25.5 231.55 25.2 232.07 24.6C232.59 23.98 232.85 23.15 232.85 22.11C232.85 21.05 232.59 20.22 232.07 19.62C231.55 19.02 230.88 18.72 230.06 18.72C229.26 18.72 228.59 19.02 228.05 19.62C227.53 20.22 227.27 21.05 227.27 22.11ZM251.427 19.08C250.327 19.08 249.327 19.2 248.427 19.44C247.527 19.68 246.857 20.08 246.417 20.64V30H240.717V14.22H245.937V17.22C246.497 16.16 247.197 15.35 248.037 14.79C248.877 14.21 249.767 13.92 250.707 13.92C251.087 13.92 251.327 13.93 251.427 13.95V19.08ZM259.528 30.3C258.148 30.3 256.788 30.08 255.448 29.64C254.128 29.18 253.008 28.52 252.088 27.66L254.038 24.15C255.018 24.79 255.958 25.29 256.858 25.65C257.778 26.01 258.608 26.19 259.348 26.19C260.168 26.19 260.578 25.95 260.578 25.47C260.578 25.21 260.408 25 260.068 24.84C259.748 24.68 259.228 24.49 258.508 24.27C257.268 23.83 256.228 23.42 255.388 23.04C254.568 22.66 253.948 22.2 253.528 21.66C253.128 21.1 252.928 20.36 252.928 19.44C252.928 17.82 253.528 16.49 254.728 15.45C255.928 14.41 257.588 13.89 259.708 13.89C260.768 13.89 261.828 14.06 262.888 14.4C263.968 14.72 265.008 15.31 266.008 16.17L263.848 19.65C262.848 19.03 261.998 18.59 261.298 18.33C260.618 18.07 260.008 17.94 259.468 17.94C258.628 17.94 258.208 18.22 258.208 18.78C258.208 19.08 258.368 19.31 258.688 19.47C259.008 19.63 259.518 19.81 260.218 20.01C261.578 20.41 262.688 20.82 263.548 21.24C264.408 21.64 265.038 22.13 265.438 22.71C265.858 23.29 266.068 24.05 266.068 24.99C266.068 26.65 265.478 27.95 264.298 28.89C263.138 29.83 261.548 30.3 259.528 30.3Z" fill="black"/>
<path d="M77.81 47.06C77.27 47.06 76.78 46.96 76.34 46.76C75.9 46.5533 75.52 46.28 75.2 45.94C74.8867 45.5933 74.6433 45.2067 74.47 44.78C74.3033 44.3467 74.22 43.9 74.22 43.44C74.22 42.9667 74.31 42.5167 74.49 42.09C74.67 41.6633 74.92 41.2833 75.24 40.95C75.5667 40.61 75.95 40.3433 76.39 40.15C76.8367 39.9567 77.3233 39.86 77.85 39.86C78.39 39.86 78.88 39.9633 79.32 40.17C79.76 40.37 80.1367 40.6433 80.45 40.99C80.7633 41.3367 81.0033 41.7267 81.17 42.16C81.3433 42.5867 81.43 43.0267 81.43 43.48C81.43 43.9467 81.34 44.3933 81.16 44.82C80.9867 45.2467 80.7367 45.63 80.41 45.97C80.09 46.3033 79.71 46.57 79.27 46.77C78.83 46.9633 78.3433 47.06 77.81 47.06ZM76.2 43.46C76.2 43.7733 76.2567 44.0733 76.37 44.36C76.49 44.6467 76.67 44.88 76.91 45.06C77.1567 45.24 77.4633 45.33 77.83 45.33C78.21 45.33 78.5167 45.2367 78.75 45.05C78.99 44.8633 79.1667 44.6267 79.28 44.34C79.3933 44.0467 79.45 43.7467 79.45 43.44C79.45 43.12 79.39 42.82 79.27 42.54C79.15 42.26 78.97 42.0333 78.73 41.86C78.49 41.68 78.1867 41.59 77.82 41.59C77.4467 41.59 77.14 41.6833 76.9 41.87C76.66 42.05 76.4833 42.2833 76.37 42.57C76.2567 42.85 76.2 43.1467 76.2 43.46ZM88.1565 47.06C87.5898 47.06 87.1032 46.9667 86.6965 46.78C86.2898 46.5933 85.9565 46.3367 85.6965 46.01C85.4432 45.6833 85.2565 45.31 85.1365 44.89C85.0165 44.4633 84.9565 44.0167 84.9565 43.55V39.9H86.9065V43.55C86.9065 43.8633 86.9465 44.1567 87.0265 44.43C87.1132 44.6967 87.2465 44.9133 87.4265 45.08C87.6132 45.2467 87.8565 45.33 88.1565 45.33C88.4632 45.33 88.7065 45.2467 88.8865 45.08C89.0732 44.9067 89.2065 44.6867 89.2865 44.42C89.3732 44.1467 89.4165 43.8567 89.4165 43.55V39.9H91.3665V43.55C91.3665 44.21 91.2498 44.8067 91.0165 45.34C90.7898 45.8667 90.4398 46.2867 89.9665 46.6C89.4932 46.9067 88.8898 47.06 88.1565 47.06ZM95.2881 47V39.9H98.5481C98.8948 39.9 99.2148 39.97 99.5081 40.11C99.8015 40.25 100.055 40.44 100.268 40.68C100.481 40.9133 100.645 41.1767 100.758 41.47C100.878 41.7633 100.938 42.06 100.938 42.36C100.938 42.7667 100.848 43.15 100.668 43.51C100.488 43.87 100.238 44.1633 99.9181 44.39L101.418 47H99.2781L98.0281 44.82H97.2381V47H95.2881ZM97.2381 43.12H98.4681C98.5881 43.12 98.6981 43.0533 98.7981 42.92C98.9048 42.7867 98.9581 42.6 98.9581 42.36C98.9581 42.1133 98.8981 41.9267 98.7781 41.8C98.6581 41.6667 98.5381 41.6 98.4181 41.6H97.2381V43.12ZM109.882 47V39.9H111.832V47H109.882ZM121.226 47V43.26L120.036 45.89H118.996L117.806 43.26V47H115.856V39.9H117.986L119.516 43.24L121.056 39.9H123.176V47H121.226ZM128.831 39.9H131.011L133.271 47H131.291L130.861 45.61H128.971L128.551 47H126.561L128.831 39.9ZM130.551 44.31L129.921 41.81L129.261 44.31H130.551ZM139.438 47.05C138.978 47.05 138.538 46.97 138.118 46.81C137.705 46.6433 137.338 46.4033 137.018 46.09C136.698 45.77 136.445 45.3867 136.258 44.94C136.078 44.4867 135.988 43.97 135.988 43.39C135.988 42.89 136.082 42.4267 136.268 42C136.455 41.5733 136.712 41.2 137.038 40.88C137.372 40.5533 137.758 40.3 138.198 40.12C138.638 39.94 139.115 39.85 139.628 39.85C140.268 39.85 140.848 39.99 141.368 40.27C141.888 40.5433 142.275 40.92 142.528 41.4L141.078 42.51C140.938 42.23 140.728 42.0067 140.448 41.84C140.168 41.6667 139.872 41.58 139.558 41.58C139.252 41.58 138.978 41.66 138.738 41.82C138.498 41.98 138.308 42.2033 138.168 42.49C138.035 42.77 137.968 43.0933 137.968 43.46C137.968 44.0133 138.118 44.4633 138.418 44.81C138.725 45.15 139.122 45.32 139.608 45.32C140.162 45.32 140.662 45.0867 141.108 44.62H139.878V43.22H142.798V47H141.188V46.41C140.682 46.8367 140.098 47.05 139.438 47.05ZM151.621 45.3V47H146.561V39.9H151.531V41.6H148.511V42.6H151.091V44.18H148.511V45.3H151.621ZM160.264 45.09V43.39H168.744V45.09H160.264ZM178.771 39.9L180.041 42.8L181.341 39.9H183.461L181.011 44.65V47H179.071V44.63L176.661 39.9H178.771ZM189.532 47.06C188.992 47.06 188.502 46.96 188.062 46.76C187.622 46.5533 187.242 46.28 186.922 45.94C186.609 45.5933 186.366 45.2067 186.192 44.78C186.026 44.3467 185.942 43.9 185.942 43.44C185.942 42.9667 186.032 42.5167 186.212 42.09C186.392 41.6633 186.642 41.2833 186.962 40.95C187.289 40.61 187.672 40.3433 188.112 40.15C188.559 39.9567 189.046 39.86 189.572 39.86C190.112 39.86 190.602 39.9633 191.042 40.17C191.482 40.37 191.859 40.6433 192.172 40.99C192.486 41.3367 192.726 41.7267 192.892 42.16C193.066 42.5867 193.152 43.0267 193.152 43.48C193.152 43.9467 193.062 44.3933 192.882 44.82C192.709 45.2467 192.459 45.63 192.132 45.97C191.812 46.3033 191.432 46.57 190.992 46.77C190.552 46.9633 190.066 47.06 189.532 47.06ZM187.922 43.46C187.922 43.7733 187.979 44.0733 188.092 44.36C188.212 44.6467 188.392 44.88 188.632 45.06C188.879 45.24 189.186 45.33 189.552 45.33C189.932 45.33 190.239 45.2367 190.472 45.05C190.712 44.8633 190.889 44.6267 191.002 44.34C191.116 44.0467 191.172 43.7467 191.172 43.44C191.172 43.12 191.112 42.82 190.992 42.54C190.872 42.26 190.692 42.0333 190.452 41.86C190.212 41.68 189.909 41.59 189.542 41.59C189.169 41.59 188.862 41.6833 188.622 41.87C188.382 42.05 188.206 42.2833 188.092 42.57C187.979 42.85 187.922 43.1467 187.922 43.46ZM199.879 47.06C199.312 47.06 198.825 46.9667 198.419 46.78C198.012 46.5933 197.679 46.3367 197.419 46.01C197.165 45.6833 196.979 45.31 196.859 44.89C196.739 44.4633 196.679 44.0167 196.679 43.55V39.9H198.629V43.55C198.629 43.8633 198.669 44.1567 198.749 44.43C198.835 44.6967 198.969 44.9133 199.149 45.08C199.335 45.2467 199.579 45.33 199.879 45.33C200.185 45.33 200.429 45.2467 200.609 45.08C200.795 44.9067 200.929 44.6867 201.009 44.42C201.095 44.1467 201.139 43.8567 201.139 43.55V39.9H203.089V43.55C203.089 44.21 202.972 44.8067 202.739 45.34C202.512 45.8667 202.162 46.2867 201.689 46.6C201.215 46.9067 200.612 47.06 199.879 47.06ZM207.01 47V39.9H210.27C210.617 39.9 210.937 39.97 211.23 40.11C211.524 40.25 211.777 40.44 211.99 40.68C212.204 40.9133 212.367 41.1767 212.48 41.47C212.6 41.7633 212.66 42.06 212.66 42.36C212.66 42.7667 212.57 43.15 212.39 43.51C212.21 43.87 211.96 44.1633 211.64 44.39L213.14 47H211L209.75 44.82H208.96V47H207.01ZM208.96 43.12H210.19C210.31 43.12 210.42 43.0533 210.52 42.92C210.627 42.7867 210.68 42.6 210.68 42.36C210.68 42.1133 210.62 41.9267 210.5 41.8C210.38 41.6667 210.26 41.6 210.14 41.6H208.96V43.12ZM225.905 42.22C225.905 42.22 225.848 42.1867 225.735 42.12C225.621 42.0533 225.471 41.98 225.285 41.9C225.098 41.8133 224.895 41.7367 224.675 41.67C224.455 41.6033 224.238 41.57 224.025 41.57C223.858 41.57 223.721 41.5967 223.615 41.65C223.508 41.7033 223.455 41.7933 223.455 41.92C223.455 42.1067 223.571 42.24 223.805 42.32C224.045 42.3933 224.368 42.4967 224.775 42.63C225.215 42.7633 225.595 42.9167 225.915 43.09C226.235 43.2633 226.481 43.4867 226.655 43.76C226.828 44.0267 226.915 44.3833 226.915 44.83C226.915 45.2567 226.838 45.6167 226.685 45.91C226.531 46.1967 226.325 46.4267 226.065 46.6C225.805 46.7733 225.515 46.9 225.195 46.98C224.875 47.0533 224.548 47.09 224.215 47.09C223.875 47.09 223.518 47.0567 223.145 46.99C222.778 46.9167 222.421 46.82 222.075 46.7C221.728 46.5733 221.411 46.4267 221.125 46.26L221.965 44.55C221.965 44.55 222.031 44.59 222.165 44.67C222.298 44.75 222.475 44.84 222.695 44.94C222.915 45.04 223.158 45.13 223.425 45.21C223.698 45.29 223.971 45.33 224.245 45.33C224.458 45.33 224.605 45.3033 224.685 45.25C224.771 45.19 224.815 45.1133 224.815 45.02C224.815 44.88 224.741 44.7733 224.595 44.7C224.448 44.62 224.255 44.5467 224.015 44.48C223.781 44.4067 223.521 44.3233 223.235 44.23C222.608 44.0167 222.151 43.7633 221.865 43.47C221.578 43.17 221.435 42.76 221.435 42.24C221.435 41.7133 221.558 41.2733 221.805 40.92C222.051 40.5667 222.375 40.3 222.775 40.12C223.181 39.9333 223.618 39.84 224.085 39.84C224.431 39.84 224.765 39.8833 225.085 39.97C225.411 40.05 225.715 40.15 225.995 40.27C226.281 40.39 226.531 40.5033 226.745 40.61L225.905 42.22ZM236.106 41.6H234.066V47H232.116V41.6H230.066V39.9H236.106V41.6ZM242.709 47.06C242.169 47.06 241.679 46.96 241.239 46.76C240.799 46.5533 240.419 46.28 240.099 45.94C239.786 45.5933 239.543 45.2067 239.369 44.78C239.203 44.3467 239.119 43.9 239.119 43.44C239.119 42.9667 239.209 42.5167 239.389 42.09C239.569 41.6633 239.819 41.2833 240.139 40.95C240.466 40.61 240.849 40.3433 241.289 40.15C241.736 39.9567 242.223 39.86 242.749 39.86C243.289 39.86 243.779 39.9633 244.219 40.17C244.659 40.37 245.036 40.6433 245.349 40.99C245.663 41.3367 245.903 41.7267 246.069 42.16C246.243 42.5867 246.329 43.0267 246.329 43.48C246.329 43.9467 246.239 44.3933 246.059 44.82C245.886 45.2467 245.636 45.63 245.309 45.97C244.989 46.3033 244.609 46.57 244.169 46.77C243.729 46.9633 243.243 47.06 242.709 47.06ZM241.099 43.46C241.099 43.7733 241.156 44.0733 241.269 44.36C241.389 44.6467 241.569 44.88 241.809 45.06C242.056 45.24 242.363 45.33 242.729 45.33C243.109 45.33 243.416 45.2367 243.649 45.05C243.889 44.8633 244.066 44.6267 244.179 44.34C244.293 44.0467 244.349 43.7467 244.349 43.44C244.349 43.12 244.289 42.82 244.169 42.54C244.049 42.26 243.869 42.0333 243.629 41.86C243.389 41.68 243.086 41.59 242.719 41.59C242.346 41.59 242.039 41.6833 241.799 41.87C241.559 42.05 241.383 42.2833 241.269 42.57C241.156 42.85 241.099 43.1467 241.099 43.46ZM249.956 47V39.9H253.216C253.562 39.9 253.882 39.97 254.176 40.11C254.469 40.25 254.722 40.44 254.936 40.68C255.149 40.9133 255.312 41.1767 255.426 41.47C255.546 41.7633 255.606 42.06 255.606 42.36C255.606 42.7667 255.516 43.15 255.336 43.51C255.156 43.87 254.906 44.1633 254.586 44.39L256.086 47H253.946L252.696 44.82H251.906V47H249.956ZM251.906 43.12H253.136C253.256 43.12 253.366 43.0533 253.466 42.92C253.572 42.7867 253.626 42.6 253.626 42.36C253.626 42.1133 253.566 41.9267 253.446 41.8C253.326 41.6667 253.206 41.6 253.086 41.6H251.906V43.12ZM260.524 39.9L261.794 42.8L263.094 39.9H265.214L262.764 44.65V47H260.824V44.63L258.414 39.9H260.524Z" fill="black"/>
<defs>
<clipPath id="clip0_1_4684">
<rect width="44" height="50" fill="white"/>
</clipPath>
</defs>
</svg>
