<svg width="300" height="85" viewBox="0 0 300 85" fill="none" xmlns="http://www.w3.org/2000/svg">
<path d="M108.94 25.7L113.11 40.25L117.22 25.7H123.37L116.02 47H110.2L102.76 25.7H108.94ZM124.596 29.9V25.1H130.296V29.9H124.596ZM124.596 47V31.22H130.296V47H124.596ZM132.34 39.08C132.34 37.52 132.63 36.13 133.21 34.91C133.81 33.67 134.63 32.7 135.67 32C136.71 31.28 137.9 30.92 139.24 30.92C140.26 30.92 141.2 31.16 142.06 31.64C142.92 32.1 143.57 32.74 144.01 33.56V25.1H149.71V40.7C149.71 41.24 149.79 41.62 149.95 41.84C150.11 42.04 150.39 42.16 150.79 42.2V47C149.81 47.2 149.01 47.3 148.39 47.3C146.45 47.3 145.33 46.57 145.03 45.11L144.91 44.54C144.37 45.5 143.64 46.2 142.72 46.64C141.8 47.08 140.82 47.3 139.78 47.3C138.34 47.3 137.06 46.95 135.94 46.25C134.82 45.55 133.94 44.58 133.3 43.34C132.66 42.1 132.34 40.68 132.34 39.08ZM144.04 40.88V38.06C143.78 37.36 143.37 36.8 142.81 36.38C142.27 35.94 141.7 35.72 141.1 35.72C140.28 35.72 139.59 36.06 139.03 36.74C138.49 37.42 138.22 38.24 138.22 39.2C138.22 40.18 138.51 40.98 139.09 41.6C139.67 42.2 140.42 42.5 141.34 42.5C142.4 42.5 143.3 41.96 144.04 40.88ZM160.901 47.3C159.061 47.3 157.491 46.93 156.191 46.19C154.911 45.45 153.931 44.47 153.251 43.25C152.591 42.03 152.261 40.72 152.261 39.32C152.261 37.8 152.591 36.41 153.251 35.15C153.911 33.87 154.881 32.85 156.161 32.09C157.441 31.31 159.021 30.92 160.901 30.92C162.781 30.92 164.361 31.3 165.641 32.06C166.921 32.82 167.891 33.82 168.551 35.06C169.211 36.3 169.541 37.65 169.541 39.11C169.541 39.73 169.491 40.31 169.391 40.85H158.321C158.381 41.69 158.691 42.3 159.251 42.68C159.811 43.04 160.421 43.22 161.081 43.22C161.701 43.22 162.281 43.08 162.821 42.8C163.381 42.52 163.751 42.13 163.931 41.63L168.761 43.01C168.121 44.27 167.131 45.3 165.791 46.1C164.451 46.9 162.821 47.3 160.901 47.3ZM158.201 37.43H163.421C163.341 36.67 163.061 36.07 162.581 35.63C162.121 35.19 161.531 34.97 160.811 34.97C160.091 34.97 159.501 35.19 159.041 35.63C158.581 36.07 158.301 36.67 158.201 37.43ZM179.183 47.3C177.303 47.3 175.723 46.92 174.443 46.16C173.163 45.38 172.193 44.37 171.533 43.13C170.873 41.89 170.543 40.55 170.543 39.11C170.543 37.65 170.873 36.3 171.533 35.06C172.193 33.82 173.163 32.82 174.443 32.06C175.723 31.3 177.303 30.92 179.183 30.92C181.063 30.92 182.643 31.3 183.923 32.06C185.203 32.82 186.173 33.82 186.833 35.06C187.493 36.3 187.823 37.65 187.823 39.11C187.823 40.55 187.493 41.89 186.833 43.13C186.173 44.37 185.203 45.38 183.923 46.16C182.643 46.92 181.063 47.3 179.183 47.3ZM176.393 39.11C176.393 40.15 176.653 40.98 177.173 41.6C177.713 42.2 178.383 42.5 179.183 42.5C180.003 42.5 180.673 42.2 181.193 41.6C181.713 40.98 181.973 40.15 181.973 39.11C181.973 38.05 181.713 37.22 181.193 36.62C180.673 36.02 180.003 35.72 179.183 35.72C178.383 35.72 177.713 36.02 177.173 36.62C176.653 37.22 176.393 38.05 176.393 39.11ZM212.149 41.9V47H196.969V25.7H211.879V30.8H202.819V33.8H210.559V38.54H202.819V41.9H212.149ZM213.405 39.08C213.405 37.52 213.695 36.13 214.275 34.91C214.875 33.67 215.695 32.7 216.735 32C217.775 31.28 218.965 30.92 220.305 30.92C221.325 30.92 222.265 31.16 223.125 31.64C223.985 32.1 224.635 32.74 225.075 33.56V25.1H230.775V40.7C230.775 41.24 230.855 41.62 231.015 41.84C231.175 42.04 231.455 42.16 231.855 42.2V47C230.875 47.2 230.075 47.3 229.455 47.3C227.515 47.3 226.395 46.57 226.095 45.11L225.975 44.54C225.435 45.5 224.705 46.2 223.785 46.64C222.865 47.08 221.885 47.3 220.845 47.3C219.405 47.3 218.125 46.95 217.005 46.25C215.885 45.55 215.005 44.58 214.365 43.34C213.725 42.1 213.405 40.68 213.405 39.08ZM225.105 40.88V38.06C224.845 37.36 224.435 36.8 223.875 36.38C223.335 35.94 222.765 35.72 222.165 35.72C221.345 35.72 220.655 36.06 220.095 36.74C219.555 37.42 219.285 38.24 219.285 39.2C219.285 40.18 219.575 40.98 220.155 41.6C220.735 42.2 221.485 42.5 222.405 42.5C223.465 42.5 224.365 41.96 225.105 40.88ZM234.196 29.9V25.1H239.896V29.9H234.196ZM234.196 47V31.22H239.896V47H234.196ZM253.85 46.13C253.05 46.47 252.19 46.76 251.27 47C250.37 47.22 249.48 47.33 248.6 47.33C247.74 47.33 246.95 47.19 246.23 46.91C245.51 46.61 244.93 46.13 244.49 45.47C244.07 44.79 243.86 43.88 243.86 42.74V35.51H241.91V31.22H243.86V26.27H249.56V31.22H252.65V35.51H249.56V40.73C249.56 41.25 249.67 41.62 249.89 41.84C250.11 42.04 250.41 42.14 250.79 42.14C251.07 42.14 251.39 42.09 251.75 41.99C252.11 41.89 252.47 41.77 252.83 41.63L253.85 46.13ZM263.06 47.3C261.18 47.3 259.6 46.92 258.32 46.16C257.04 45.38 256.07 44.37 255.41 43.13C254.75 41.89 254.42 40.55 254.42 39.11C254.42 37.65 254.75 36.3 255.41 35.06C256.07 33.82 257.04 32.82 258.32 32.06C259.6 31.3 261.18 30.92 263.06 30.92C264.94 30.92 266.52 31.3 267.8 32.06C269.08 32.82 270.05 33.82 270.71 35.06C271.37 36.3 271.7 37.65 271.7 39.11C271.7 40.55 271.37 41.89 270.71 43.13C270.05 44.37 269.08 45.38 267.8 46.16C266.52 46.92 264.94 47.3 263.06 47.3ZM260.27 39.11C260.27 40.15 260.53 40.98 261.05 41.6C261.59 42.2 262.26 42.5 263.06 42.5C263.88 42.5 264.55 42.2 265.07 41.6C265.59 40.98 265.85 40.15 265.85 39.11C265.85 38.05 265.59 37.22 265.07 36.62C264.55 36.02 263.88 35.72 263.06 35.72C262.26 35.72 261.59 36.02 261.05 36.62C260.53 37.22 260.27 38.05 260.27 39.11ZM284.427 36.08C283.327 36.08 282.327 36.2 281.427 36.44C280.527 36.68 279.857 37.08 279.417 37.64V47H273.717V31.22H278.937V34.22C279.497 33.16 280.197 32.35 281.037 31.79C281.877 31.21 282.767 30.92 283.707 30.92C284.087 30.92 284.327 30.93 284.427 30.95V36.08ZM292.528 47.3C291.148 47.3 289.788 47.08 288.448 46.64C287.128 46.18 286.008 45.52 285.088 44.66L287.038 41.15C288.018 41.79 288.958 42.29 289.858 42.65C290.778 43.01 291.608 43.19 292.348 43.19C293.168 43.19 293.578 42.95 293.578 42.47C293.578 42.21 293.408 42 293.068 41.84C292.748 41.68 292.228 41.49 291.508 41.27C290.268 40.83 289.228 40.42 288.388 40.04C287.568 39.66 286.948 39.2 286.528 38.66C286.128 38.1 285.928 37.36 285.928 36.44C285.928 34.82 286.528 33.49 287.728 32.45C288.928 31.41 290.588 30.89 292.708 30.89C293.768 30.89 294.828 31.06 295.888 31.4C296.968 31.72 298.008 32.31 299.008 33.17L296.848 36.65C295.848 36.03 294.998 35.59 294.298 35.33C293.618 35.07 293.008 34.94 292.468 34.94C291.628 34.94 291.208 35.22 291.208 35.78C291.208 36.08 291.368 36.31 291.688 36.47C292.008 36.63 292.518 36.81 293.218 37.01C294.578 37.41 295.688 37.82 296.548 38.24C297.408 38.64 298.038 39.13 298.438 39.71C298.858 40.29 299.068 41.05 299.068 41.99C299.068 43.65 298.478 44.95 297.298 45.89C296.138 46.83 294.548 47.3 292.528 47.3Z" fill="white"/>
<path d="M110.75 64.05C110.243 64.05 109.78 63.95 109.36 63.75C108.947 63.55 108.59 63.28 108.29 62.94C107.99 62.5933 107.757 62.2067 107.59 61.78C107.43 61.3467 107.35 60.9033 107.35 60.45C107.35 59.9767 107.437 59.5267 107.61 59.1C107.783 58.6667 108.023 58.2833 108.33 57.95C108.637 57.61 108.997 57.3433 109.41 57.15C109.83 56.95 110.283 56.85 110.77 56.85C111.277 56.85 111.737 56.9533 112.15 57.16C112.57 57.3667 112.927 57.6433 113.22 57.99C113.52 58.3367 113.75 58.7233 113.91 59.15C114.077 59.5767 114.16 60.0133 114.16 60.46C114.16 60.9333 114.073 61.3867 113.9 61.82C113.733 62.2467 113.497 62.63 113.19 62.97C112.883 63.3033 112.52 63.5667 112.1 63.76C111.687 63.9533 111.237 64.05 110.75 64.05ZM108.49 60.45C108.49 60.8967 108.583 61.32 108.77 61.72C108.957 62.1133 109.217 62.4333 109.55 62.68C109.89 62.92 110.293 63.04 110.76 63.04C111.113 63.04 111.43 62.9667 111.71 62.82C111.99 62.6733 112.227 62.4767 112.42 62.23C112.613 61.9767 112.76 61.6967 112.86 61.39C112.96 61.0833 113.01 60.77 113.01 60.45C113.01 60.0033 112.917 59.5833 112.73 59.19C112.55 58.7967 112.29 58.48 111.95 58.24C111.61 57.9933 111.213 57.87 110.76 57.87C110.4 57.87 110.08 57.9433 109.8 58.09C109.52 58.2367 109.283 58.4333 109.09 58.68C108.897 58.9267 108.747 59.2033 108.64 59.51C108.54 59.8167 108.49 60.13 108.49 60.45ZM121.08 64.05C120.52 64.05 120.043 63.9533 119.65 63.76C119.256 63.5667 118.94 63.3033 118.7 62.97C118.46 62.63 118.286 62.25 118.18 61.83C118.073 61.4033 118.02 60.96 118.02 60.5V56.9H119.14V60.5C119.14 60.8267 119.173 61.1433 119.24 61.45C119.306 61.75 119.413 62.02 119.56 62.26C119.706 62.5 119.903 62.69 120.15 62.83C120.403 62.97 120.713 63.04 121.08 63.04C121.453 63.04 121.763 62.97 122.01 62.83C122.263 62.6833 122.463 62.49 122.61 62.25C122.756 62.0033 122.86 61.73 122.92 61.43C122.986 61.13 123.02 60.82 123.02 60.5V56.9H124.15V60.5C124.15 60.9867 124.09 61.4433 123.97 61.87C123.856 62.2967 123.676 62.6733 123.43 63C123.19 63.3267 122.873 63.5833 122.48 63.77C122.093 63.9567 121.626 64.05 121.08 64.05ZM128.439 64V56.9H131.529C131.849 56.9 132.142 56.9667 132.409 57.1C132.676 57.2333 132.906 57.41 133.099 57.63C133.299 57.85 133.452 58.0967 133.559 58.37C133.672 58.6433 133.729 58.9233 133.729 59.21C133.729 59.53 133.669 59.8333 133.549 60.12C133.436 60.4 133.276 60.6433 133.069 60.85C132.862 61.0567 132.619 61.2067 132.339 61.3L134.009 64H132.749L131.209 61.53H129.559V64H128.439ZM129.559 60.54H131.519C131.726 60.54 131.909 60.48 132.069 60.36C132.229 60.2333 132.356 60.07 132.449 59.87C132.542 59.67 132.589 59.45 132.589 59.21C132.589 58.9633 132.536 58.7433 132.429 58.55C132.322 58.35 132.182 58.19 132.009 58.07C131.836 57.95 131.652 57.89 131.459 57.89H129.559V60.54ZM143.121 64V56.9H144.241V64H143.121ZM154.616 64V58.94L152.526 62.78H151.866L149.766 58.94V64H148.646V56.9H149.846L152.196 61.24L154.546 56.9H155.746V64H154.616ZM162.197 56.9H163.257L166.017 64H164.837L164.087 62.07H161.347L160.607 64H159.417L162.197 56.9ZM163.867 61.24L162.727 58.13L161.547 61.24H163.867ZM172.321 64.05C171.848 64.05 171.408 63.9533 171.001 63.76C170.601 63.5667 170.248 63.3 169.941 62.96C169.641 62.62 169.405 62.2333 169.231 61.8C169.065 61.3667 168.981 60.9067 168.981 60.42C168.981 59.94 169.065 59.4867 169.231 59.06C169.398 58.6267 169.635 58.2467 169.941 57.92C170.248 57.5867 170.605 57.3267 171.011 57.14C171.425 56.9467 171.875 56.85 172.361 56.85C173.035 56.85 173.601 56.9933 174.061 57.28C174.521 57.56 174.871 57.9333 175.111 58.4L174.251 59.02C174.058 58.6333 173.791 58.3433 173.451 58.15C173.111 57.9567 172.738 57.86 172.331 57.86C171.885 57.86 171.495 57.9833 171.161 58.23C170.828 58.47 170.571 58.7867 170.391 59.18C170.211 59.5733 170.121 59.9967 170.121 60.45C170.121 60.93 170.221 61.3667 170.421 61.76C170.621 62.1467 170.891 62.4567 171.231 62.69C171.578 62.9233 171.971 63.04 172.411 63.04C173.145 63.04 173.805 62.69 174.391 61.99V61.24H172.901V60.41H175.331V64H174.391V63.12C173.798 63.74 173.108 64.05 172.321 64.05ZM184.279 63.01V64H179.409V56.9H184.189V57.89H180.529V59.91H183.699V60.84H180.529V63.01H184.279ZM193.315 61.76V60.77H201.285V61.76H193.315ZM210.924 56.9L212.884 60.43L214.864 56.9H216.094L213.444 61.46V64H212.324V61.44L209.694 56.9H210.924ZM222.267 64.05C221.761 64.05 221.297 63.95 220.877 63.75C220.464 63.55 220.107 63.28 219.807 62.94C219.507 62.5933 219.274 62.2067 219.107 61.78C218.947 61.3467 218.867 60.9033 218.867 60.45C218.867 59.9767 218.954 59.5267 219.127 59.1C219.301 58.6667 219.541 58.2833 219.847 57.95C220.154 57.61 220.514 57.3433 220.927 57.15C221.347 56.95 221.801 56.85 222.287 56.85C222.794 56.85 223.254 56.9533 223.667 57.16C224.087 57.3667 224.444 57.6433 224.737 57.99C225.037 58.3367 225.267 58.7233 225.427 59.15C225.594 59.5767 225.677 60.0133 225.677 60.46C225.677 60.9333 225.591 61.3867 225.417 61.82C225.251 62.2467 225.014 62.63 224.707 62.97C224.401 63.3033 224.037 63.5667 223.617 63.76C223.204 63.9533 222.754 64.05 222.267 64.05ZM220.007 60.45C220.007 60.8967 220.101 61.32 220.287 61.72C220.474 62.1133 220.734 62.4333 221.067 62.68C221.407 62.92 221.811 63.04 222.277 63.04C222.631 63.04 222.947 62.9667 223.227 62.82C223.507 62.6733 223.744 62.4767 223.937 62.23C224.131 61.9767 224.277 61.6967 224.377 61.39C224.477 61.0833 224.527 60.77 224.527 60.45C224.527 60.0033 224.434 59.5833 224.247 59.19C224.067 58.7967 223.807 58.48 223.467 58.24C223.127 57.9933 222.731 57.87 222.277 57.87C221.917 57.87 221.597 57.9433 221.317 58.09C221.037 58.2367 220.801 58.4333 220.607 58.68C220.414 58.9267 220.264 59.2033 220.157 59.51C220.057 59.8167 220.007 60.13 220.007 60.45ZM232.597 64.05C232.037 64.05 231.56 63.9533 231.167 63.76C230.773 63.5667 230.457 63.3033 230.217 62.97C229.977 62.63 229.803 62.25 229.697 61.83C229.59 61.4033 229.537 60.96 229.537 60.5V56.9H230.657V60.5C230.657 60.8267 230.69 61.1433 230.757 61.45C230.823 61.75 230.93 62.02 231.077 62.26C231.223 62.5 231.42 62.69 231.667 62.83C231.92 62.97 232.23 63.04 232.597 63.04C232.97 63.04 233.28 62.97 233.527 62.83C233.78 62.6833 233.98 62.49 234.127 62.25C234.273 62.0033 234.377 61.73 234.437 61.43C234.503 61.13 234.537 60.82 234.537 60.5V56.9H235.667V60.5C235.667 60.9867 235.607 61.4433 235.487 61.87C235.373 62.2967 235.193 62.6733 234.947 63C234.707 63.3267 234.39 63.5833 233.997 63.77C233.61 63.9567 233.143 64.05 232.597 64.05ZM239.956 64V56.9H243.046C243.366 56.9 243.66 56.9667 243.926 57.1C244.193 57.2333 244.423 57.41 244.616 57.63C244.816 57.85 244.97 58.0967 245.076 58.37C245.19 58.6433 245.246 58.9233 245.246 59.21C245.246 59.53 245.186 59.8333 245.066 60.12C244.953 60.4 244.793 60.6433 244.586 60.85C244.38 61.0567 244.136 61.2067 243.856 61.3L245.526 64H244.266L242.726 61.53H241.076V64H239.956ZM241.076 60.54H243.036C243.243 60.54 243.426 60.48 243.586 60.36C243.746 60.2333 243.873 60.07 243.966 59.87C244.06 59.67 244.106 59.45 244.106 59.21C244.106 58.9633 244.053 58.7433 243.946 58.55C243.84 58.35 243.7 58.19 243.526 58.07C243.353 57.95 243.17 57.89 242.976 57.89H241.076V60.54ZM258.838 58.57C258.752 58.47 258.608 58.3667 258.408 58.26C258.215 58.1467 257.988 58.05 257.728 57.97C257.468 57.89 257.198 57.85 256.918 57.85C256.445 57.85 256.095 57.9367 255.868 58.11C255.648 58.2833 255.538 58.5233 255.538 58.83C255.538 59.0567 255.602 59.2367 255.728 59.37C255.855 59.4967 256.048 59.6067 256.308 59.7C256.568 59.7867 256.895 59.8767 257.288 59.97C257.768 60.0833 258.182 60.22 258.528 60.38C258.882 60.5333 259.152 60.74 259.338 61C259.532 61.26 259.628 61.6033 259.628 62.03C259.628 62.5167 259.512 62.91 259.278 63.21C259.045 63.51 258.728 63.73 258.328 63.87C257.935 64.0033 257.502 64.07 257.028 64.07C256.488 64.07 255.965 63.9867 255.458 63.82C254.952 63.6533 254.498 63.4167 254.098 63.11L254.608 62.15C254.722 62.2633 254.902 62.3933 255.148 62.54C255.395 62.68 255.682 62.8033 256.008 62.91C256.342 63.01 256.688 63.06 257.048 63.06C257.488 63.06 257.828 62.9833 258.068 62.83C258.308 62.67 258.428 62.4433 258.428 62.15C258.428 61.91 258.348 61.72 258.188 61.58C258.035 61.4333 257.812 61.3133 257.518 61.22C257.232 61.12 256.885 61.0167 256.478 60.91C256.012 60.79 255.622 60.6533 255.308 60.5C254.995 60.3467 254.758 60.1533 254.598 59.92C254.445 59.6867 254.368 59.3833 254.368 59.01C254.368 58.5433 254.482 58.15 254.708 57.83C254.935 57.5033 255.242 57.26 255.628 57.1C256.022 56.9333 256.462 56.85 256.948 56.85C257.428 56.85 257.872 56.9267 258.278 57.08C258.685 57.2333 259.042 57.4233 259.348 57.65L258.838 58.57ZM268.762 57.89H266.402V64H265.272V57.89H262.902V56.9H268.762V57.89ZM275.278 64.05C274.771 64.05 274.308 63.95 273.888 63.75C273.475 63.55 273.118 63.28 272.818 62.94C272.518 62.5933 272.285 62.2067 272.118 61.78C271.958 61.3467 271.878 60.9033 271.878 60.45C271.878 59.9767 271.965 59.5267 272.138 59.1C272.311 58.6667 272.551 58.2833 272.858 57.95C273.165 57.61 273.525 57.3433 273.938 57.15C274.358 56.95 274.811 56.85 275.298 56.85C275.805 56.85 276.265 56.9533 276.678 57.16C277.098 57.3667 277.455 57.6433 277.748 57.99C278.048 58.3367 278.278 58.7233 278.438 59.15C278.605 59.5767 278.688 60.0133 278.688 60.46C278.688 60.9333 278.601 61.3867 278.428 61.82C278.261 62.2467 278.025 62.63 277.718 62.97C277.411 63.3033 277.048 63.5667 276.628 63.76C276.215 63.9533 275.765 64.05 275.278 64.05ZM273.018 60.45C273.018 60.8967 273.111 61.32 273.298 61.72C273.485 62.1133 273.745 62.4333 274.078 62.68C274.418 62.92 274.821 63.04 275.288 63.04C275.641 63.04 275.958 62.9667 276.238 62.82C276.518 62.6733 276.755 62.4767 276.948 62.23C277.141 61.9767 277.288 61.6967 277.388 61.39C277.488 61.0833 277.538 60.77 277.538 60.45C277.538 60.0033 277.445 59.5833 277.258 59.19C277.078 58.7967 276.818 58.48 276.478 58.24C276.138 57.9933 275.741 57.87 275.288 57.87C274.928 57.87 274.608 57.9433 274.328 58.09C274.048 58.2367 273.811 58.4333 273.618 58.68C273.425 58.9267 273.275 59.2033 273.168 59.51C273.068 59.8167 273.018 60.13 273.018 60.45ZM282.648 64V56.9H285.738C286.058 56.9 286.351 56.9667 286.618 57.1C286.884 57.2333 287.114 57.41 287.308 57.63C287.508 57.85 287.661 58.0967 287.768 58.37C287.881 58.6433 287.938 58.9233 287.938 59.21C287.938 59.53 287.878 59.8333 287.758 60.12C287.644 60.4 287.484 60.6433 287.278 60.85C287.071 61.0567 286.828 61.2067 286.548 61.3L288.218 64H286.958L285.418 61.53H283.768V64H282.648ZM283.768 60.54H285.728C285.934 60.54 286.118 60.48 286.278 60.36C286.438 60.2333 286.564 60.07 286.658 59.87C286.751 59.67 286.798 59.45 286.798 59.21C286.798 58.9633 286.744 58.7433 286.638 58.55C286.531 58.35 286.391 58.19 286.218 58.07C286.044 57.95 285.861 57.89 285.668 57.89H283.768V60.54ZM292.247 56.9L294.207 60.43L296.187 56.9H297.417L294.767 61.46V64H293.647V61.44L291.017 56.9H292.247Z" fill="white"/>
<g clip-path="url(#clip0_1_4391)">
<path d="M66.4399 27.625L55.1963 20.8516C55.1963 20.8516 60.0515 30.8125 61.5848 34.2656C62.2236 35.7266 63.118 37.4531 63.7568 39.1797C64.1401 40.375 64.2679 41.9687 64.2679 42.6328C64.2679 43.5625 64.0124 45.9531 61.5848 47.4141L20.4434 71.8516C20.8267 72.3828 22.6154 73.1797 24.2764 73.7109C30.6648 75.7031 36.5422 75.3047 42.2917 71.8516L66.951 56.9766C71.8062 54.0547 74.7449 48.875 75.0004 43.1641C75.256 36.7891 71.6784 30.8125 66.4399 27.625Z" fill="white"/>
<path d="M16.0988 74.2422C15.0767 73.9766 13.9267 73.3125 13.5434 73.0469C12.7768 72.5156 10.8603 71.1875 10.8603 68.2656V19.9219C9.32709 20.5859 7.15503 22.0469 6.13288 22.9766C2.8109 25.5 0 30.8125 0 36.9219V71.8516C0 72.6484 0.127768 73.4453 0.511073 74.2422C3.96082 81.4141 10.0937 85 16.2266 85C19.0375 85 21.8484 84.2031 24.276 82.7422L32.5809 77.8281C32.5809 77.8281 23.5094 76.3672 20.5707 75.5703C19.293 75.1719 17.2487 74.5078 16.0988 74.2422Z" fill="white"/>
<path d="M46.1244 15.5395L24.6593 2.3911C19.8041 -0.530778 13.6712 -0.929215 8.68825 1.85985C3.19421 4.78172 0 10.4927 0 16.7348V27.3598C0 27.3598 5.74957 18.9927 8.30494 16.2036C9.96593 14.477 12.138 12.6177 13.1601 11.9536C13.6712 11.688 14.9489 11.1567 16.2266 11.1567C16.9932 11.1567 17.8876 11.2895 18.9097 11.9536L56.0903 34.5317C56.2181 33.8677 56.2181 32.8052 56.2181 31.6098C55.5792 24.8364 51.7462 18.8598 46.1244 15.5395Z" fill="white"/>
</g>
<defs>
<clipPath id="clip0_1_4391">
<rect width="75" height="85" fill="white"/>
</clipPath>
</defs>
</svg>
