<svg width="26" height="26" viewBox="0 0 26 26" fill="none" xmlns="http://www.w3.org/2000/svg">
<path fill-rule="evenodd" clip-rule="evenodd" d="M0.25 7.46592C0.25 3.48089 3.4803 0.25 7.46592 0.25H18.5336C18.5334 0.25 18.5337 0.25 18.5336 0.25C22.5188 0.250277 25.75 3.48043 25.75 7.46592V18.5336C25.75 22.5192 22.5191 25.75 18.5336 25.75H7.46643C3.48093 25.75 0.25 22.5197 0.25 18.5341V7.46592ZM18.5336 1.75H7.46592C4.3088 1.75 1.75 4.30924 1.75 7.46592V18.5341C1.75 21.6912 4.3092 24.25 7.46643 24.25H18.5336C21.6907 24.25 24.25 21.6907 24.25 18.5336V7.46592C24.25 4.30902 21.6906 1.75028 18.5336 1.75C18.5337 1.75 18.5334 1.75 18.5336 1.75Z" fill="white"/>
<path fill-rule="evenodd" clip-rule="evenodd" d="M12.9993 7.95697C10.2141 7.95697 7.95614 10.2149 7.95614 13.0002C7.95614 15.7855 10.2141 18.0434 12.9993 18.0434C15.7846 18.0434 18.0426 15.7855 18.0426 13.0002C18.0426 10.2149 15.7846 7.95697 12.9993 7.95697ZM6.45614 13.0002C6.45614 9.38647 9.38563 6.45697 12.9993 6.45697C16.6131 6.45697 19.5426 9.38647 19.5426 13.0002C19.5426 16.6139 16.6131 19.5434 12.9993 19.5434C9.38563 19.5434 6.45614 16.6139 6.45614 13.0002Z" fill="white"/>
<path d="M20.0345 7.20736C20.72 7.20736 21.2758 6.65163 21.2758 5.96611C21.2758 5.28058 20.72 4.72485 20.0345 4.72485C19.349 4.72485 18.7933 5.28058 18.7933 5.96611C18.7933 6.65163 19.349 7.20736 20.0345 7.20736Z" fill="white"/>
</svg>
