<svg width="24" height="20" viewBox="0 0 24 20" fill="none" xmlns="http://www.w3.org/2000/svg">
<path d="M23.0001 0.999802C22.0425 1.67528 20.9822 2.19191 19.8601 2.5298C19.2578 1.83731 18.4574 1.34649 17.5671 1.12373C16.6768 0.900962 15.7396 0.956998 14.8822 1.28426C14.0247 1.61151 13.2885 2.1942 12.7731 2.95352C12.2576 3.71283 11.9878 4.61214 12.0001 5.5298V6.5298C10.2427 6.57537 8.50135 6.18562 6.93109 5.39525C5.36082 4.60488 4.01039 3.43844 3.00008 1.9998C3.00008 1.9998 -0.999923 10.9998 8.00008 14.9998C5.94061 16.3978 3.48723 17.0987 1.00008 16.9998C10.0001 21.9998 21.0001 16.9998 21.0001 5.4998C20.9992 5.22126 20.9724 4.9434 20.9201 4.6698C21.9407 3.6633 22.6609 2.39251 23.0001 0.999802Z" fill="white"/>
<path fill-rule="evenodd" clip-rule="evenodd" d="M14.6147 0.583559C15.6157 0.201515 16.7098 0.136099 17.7492 0.396158C18.6238 0.615003 19.4241 1.05545 20.0748 1.67132C20.9605 1.36084 21.7996 0.928768 22.5678 0.386929C22.8232 0.206729 23.1637 0.203896 23.4221 0.379819C23.6806 0.555741 23.8028 0.873516 23.7288 1.17727C23.3873 2.57932 22.6939 3.86874 21.7169 4.92488C21.7383 5.11485 21.7494 5.30595 21.7501 5.49732L21.7501 5.4998C21.7501 11.5123 18.8599 15.8998 14.7275 18.0994C10.6133 20.2892 5.34323 20.2706 0.635845 17.6554C0.332237 17.4867 0.184153 17.1317 0.277939 16.7973C0.371725 16.4629 0.682845 16.2366 1.02989 16.2504C2.91412 16.3253 4.77763 15.9096 6.44152 15.0542C4.75912 14.0979 3.58252 12.9363 2.78834 11.6823C1.81296 10.1423 1.44287 8.50823 1.37585 7.03386C1.30898 5.56277 1.54275 4.23523 1.78959 3.28076C1.91346 2.80179 2.04187 2.41204 2.14046 2.13933C2.1898 2.00286 2.2318 1.89535 2.26223 1.82025C2.27744 1.78269 2.28977 1.75321 2.2987 1.73223L2.30946 1.70719L2.3128 1.69954L2.31394 1.69695L2.31438 1.69597C2.31455 1.69557 2.31472 1.6952 3.00008 1.9998L2.31438 1.69597C2.42411 1.44907 2.65851 1.2795 2.92743 1.25333C3.19635 1.22716 3.45856 1.34766 3.61384 1.56877C4.55308 2.90619 5.80849 3.99056 7.26828 4.72532C8.51004 5.35034 9.86688 5.70587 11.2501 5.77206V5.53461C11.2368 4.46514 11.5518 3.41726 12.1525 2.53227C12.7543 1.64584 13.6138 0.965603 14.6147 0.583559ZM3.27268 3.53938C3.26238 3.57764 3.25208 3.61663 3.24181 3.65634C3.01991 4.51438 2.81617 5.68684 2.8743 6.96575C2.93229 8.24137 3.2497 9.60734 4.05557 10.8798C4.85842 12.1474 6.17461 13.3677 8.30468 14.3144C8.55353 14.425 8.72288 14.6618 8.7471 14.9331C8.77133 15.2043 8.64662 15.4674 8.4213 15.6203C7.07559 16.5338 5.57187 17.1677 3.99882 17.4967C7.51791 18.6437 11.1192 18.3207 14.0227 16.7752C17.6399 14.8499 20.2496 10.988 20.2501 5.50116C20.2492 5.26941 20.2269 5.03824 20.1834 4.81062C20.1364 4.56472 20.2152 4.31158 20.3934 4.1358C20.8252 3.71002 21.1974 3.23187 21.5026 2.71455C21.04 2.92294 20.5636 3.10121 20.0763 3.24795C19.7939 3.33301 19.4878 3.24458 19.2942 3.02198C18.7927 2.44542 18.1263 2.03677 17.3851 1.8513C16.6438 1.66583 15.8635 1.71248 15.1496 1.98495C14.4357 2.25742 13.8228 2.74256 13.3936 3.37476C12.9644 4.00696 12.7398 4.75571 12.75 5.51975L12.7501 5.5298L12.7501 6.5298C12.7501 6.93644 12.426 7.26901 12.0195 7.27955C10.1385 7.32832 8.27463 6.91115 6.59389 6.06517C5.33738 5.43273 4.21238 4.57531 3.27268 3.53938Z" fill="white"/>
</svg>
