<svg width="33" height="32" viewBox="0 0 33 32" fill="none" xmlns="http://www.w3.org/2000/svg">
<path d="M16.0782 0C7.25269 0 0.0752161 7.17431 0.0712899 15.9931C0.0703084 19.0152 0.916391 21.9582 2.51777 24.5047L2.89811 25.1098L1.28152 31.0121L7.3371 29.424L7.92161 29.7705C10.3779 31.228 13.1939 31.999 16.0649 32H16.0713C24.8899 32 32.0674 24.8252 32.0713 16.0059C32.0728 11.7319 30.41 7.71365 27.3894 4.69061C24.3687 1.66758 20.3513 0.00147229 16.0782 0ZM25.4891 22.8696C25.0882 23.9924 23.1668 25.0176 22.2427 25.156C21.4138 25.2796 20.3655 25.3312 19.2132 24.9656C18.5143 24.7437 17.6187 24.4478 16.4708 23.9526C11.646 21.8699 8.49482 17.0134 8.25435 16.6925C8.01387 16.3715 6.29029 14.0851 6.29029 11.7182C6.29029 9.35178 7.53292 8.1882 7.97363 7.70727C8.41483 7.22584 8.93602 7.1056 9.25649 7.1056C9.57696 7.1056 9.89793 7.10855 10.1782 7.12229C10.4736 7.13701 10.8701 7.00991 11.2603 7.94774C11.6613 8.91059 12.6232 11.277 12.7434 11.5175C12.8636 11.7584 12.9436 12.0391 12.7836 12.3601C12.6232 12.681 12.0902 13.3735 11.5813 14.0046C11.3678 14.2691 11.0895 14.5047 11.3702 14.9861C11.6505 15.467 12.6163 17.0419 14.0459 18.3168C15.8833 19.955 17.4332 20.4624 17.9141 20.7034C18.3946 20.9438 18.6753 20.9036 18.956 20.5831C19.2362 20.2622 20.1584 19.1791 20.4789 18.6977C20.7993 18.2162 21.1203 18.2967 21.561 18.4572C22.0022 18.6172 24.3667 19.7808 24.8477 20.0212C25.3286 20.2622 25.6491 20.3824 25.7693 20.5831C25.8901 20.7839 25.8901 21.7462 25.4891 22.8696Z" fill="white"/>
</svg>
