<svg width="156" height="124" viewBox="0 0 156 124" fill="none" xmlns="http://www.w3.org/2000/svg">
<path d="M60.1445 98.4673L87.6325 76.9001V120.034L60.1445 98.4673Z" fill="#F13F00"/>
<path fill-rule="evenodd" clip-rule="evenodd" d="M152.953 0H3.04688C1.36395 0 0 1.36395 0 3.04688V99.0234C0 100.705 1.36395 102.07 3.04688 102.07H20.6247C22.3065 102.07 23.6716 100.705 23.6716 99.0234C23.6716 97.3405 22.3065 95.9766 20.6247 95.9766H6.09375V6.09375H149.906V95.9766H89.6936V79.8281C89.6936 78.657 89.0223 77.5906 87.9678 77.0824C86.9133 76.5742 85.6612 76.7158 84.746 77.4454L61.5112 95.9766H44.9997C43.3168 95.9766 41.9529 97.3405 41.9529 99.0234C41.9529 100.705 43.3168 102.07 44.9997 102.07H61.5112L84.746 120.6C85.297 121.039 85.9695 121.266 86.6467 121.266C87.0954 121.266 87.5477 121.166 87.9678 120.963C89.0223 120.455 89.6924 119.389 89.6924 118.219V102.07H152.953C154.636 102.07 156 100.705 156 99.0234V3.04688C156 1.36395 154.636 0 152.953 0ZM83.5998 111.892L67.4633 99.0234L83.5998 86.1552V111.892Z" fill="black"/>
<path fill-rule="evenodd" clip-rule="evenodd" d="M36.9302 17.1383H23.2871C21.6042 17.1383 20.2402 18.5023 20.2402 20.1852C20.2402 21.8681 21.6042 23.2321 23.2871 23.2321H36.9302C38.6131 23.2321 39.9771 21.8681 39.9771 20.1852C39.9771 18.5023 38.6131 17.1383 36.9302 17.1383Z" fill="black"/>
<path fill-rule="evenodd" clip-rule="evenodd" d="M36.9302 32.1454H23.2871C21.6042 32.1454 20.2402 33.5094 20.2402 35.1923C20.2402 36.874 21.6042 38.2392 23.2871 38.2392H36.9302C38.6131 38.2392 39.9771 36.874 39.9771 35.1923C39.9771 33.5094 38.6131 32.1454 36.9302 32.1454Z" fill="black"/>
<path fill-rule="evenodd" clip-rule="evenodd" d="M36.9302 47.1513H23.2871C21.6042 47.1513 20.2402 48.5152 20.2402 50.1982C20.2402 51.8811 21.6042 53.245 23.2871 53.245H36.9302C38.6131 53.245 39.9771 51.8811 39.9771 50.1982C39.9771 48.5164 38.6131 47.1513 36.9302 47.1513Z" fill="black"/>
<path fill-rule="evenodd" clip-rule="evenodd" d="M36.9302 62.1583H23.2871C21.6042 62.1583 20.2402 63.5222 20.2402 65.2052C20.2402 66.8881 21.6042 68.252 23.2871 68.252H36.9302C38.6131 68.252 39.9771 66.8881 39.9771 65.2052C39.9771 63.5222 38.6131 62.1583 36.9302 62.1583Z" fill="black"/>
<path fill-rule="evenodd" clip-rule="evenodd" d="M48.8145 23.2321H132.712C134.395 23.2321 135.759 21.8681 135.759 20.1852C135.759 18.5023 134.395 17.1383 132.712 17.1383H48.8145C47.1315 17.1383 45.7676 18.5023 45.7676 20.1852C45.7676 21.8681 47.1315 23.2321 48.8145 23.2321Z" fill="black"/>
<path fill-rule="evenodd" clip-rule="evenodd" d="M48.8145 38.2392H132.712C134.395 38.2392 135.759 36.874 135.759 35.1923C135.759 33.5094 134.395 32.1454 132.712 32.1454H48.8145C47.1315 32.1454 45.7676 33.5094 45.7676 35.1923C45.7676 36.874 47.1315 38.2392 48.8145 38.2392Z" fill="black"/>
<path fill-rule="evenodd" clip-rule="evenodd" d="M48.8145 53.245H132.712C134.395 53.245 135.759 51.8811 135.759 50.1982C135.759 48.5152 134.395 47.1513 132.712 47.1513H48.8145C47.1315 47.1513 45.7676 48.5152 45.7676 50.1982C45.7676 51.8811 47.1315 53.245 48.8145 53.245Z" fill="black"/>
<path fill-rule="evenodd" clip-rule="evenodd" d="M48.8145 68.252H132.712C134.395 68.252 135.759 66.8881 135.759 65.2052C135.759 63.5222 134.395 62.1583 132.712 62.1583H48.8145C47.1315 62.1583 45.7676 63.5222 45.7676 65.2052C45.7676 66.8881 47.1315 68.252 48.8145 68.252Z" fill="black"/>
<path fill-rule="evenodd" clip-rule="evenodd" d="M32.8125 95.9762C31.1343 95.9762 29.7656 97.3449 29.7656 99.0231C29.7656 100.701 31.1343 102.07 32.8125 102.07C34.4907 102.07 35.8594 100.701 35.8594 99.0231C35.8594 97.3449 34.4907 95.9762 32.8125 95.9762Z" fill="black"/>
</svg>
