<svg width="156" height="124" viewBox="0 0 156 124" fill="none" xmlns="http://www.w3.org/2000/svg">
<path d="M97.5 45.0357L60.5893 66.3461L60.5893 23.7253L97.5 45.0357Z" fill="#F13F00"/>
<path fill-rule="evenodd" clip-rule="evenodd" d="M152.953 0H3.04688C1.36395 0 0 1.36395 0 3.04688V105.83C0 107.513 1.36395 108.877 3.04688 108.877H56.1006V117.865H39.7903C38.1074 117.865 36.7434 119.229 36.7434 120.912C36.7434 122.595 38.1074 123.959 39.7903 123.959H116.21C117.893 123.959 119.257 122.595 119.257 120.912C119.257 119.229 117.893 117.865 116.21 117.865H99.8994V108.877H152.953C154.636 108.877 156 107.513 156 105.83V66.6266C156 64.9437 154.636 63.5797 152.953 63.5797C151.27 63.5797 149.906 64.9437 149.906 66.6266V102.783H6.09375V6.09375H149.906V42.2516C149.906 43.9333 151.27 45.2985 152.953 45.2985C154.636 45.2985 156 43.9333 156 42.2516V3.04688C156 1.36395 154.636 0 152.953 0ZM93.8057 108.877V117.865H62.1943V108.877H93.8057Z" fill="black"/>
<path fill-rule="evenodd" clip-rule="evenodd" d="M61.4336 67.3478C61.9597 67.3478 62.4845 67.2121 62.957 66.9396L96.0894 47.8109C97.032 47.267 97.6129 46.2601 97.6129 45.1723C97.6129 44.0833 97.032 43.0776 96.0894 42.5336L62.957 23.4038C62.0132 22.8599 60.8528 22.8599 59.9102 23.4038C58.9663 23.9477 58.3867 24.9546 58.3867 26.0424V64.3009C58.3867 65.39 58.9663 66.3957 59.9102 66.9396C60.3815 67.2121 60.9063 67.3478 61.4336 67.3478ZM64.4805 31.3197L88.4722 45.1723L64.4805 59.0237V31.3197Z" fill="black"/>
<path fill-rule="evenodd" clip-rule="evenodd" d="M37.2959 85.7195C37.2959 87.4025 38.6599 88.7664 40.3428 88.7664H136.776C138.459 88.7664 139.823 87.4025 139.823 85.7195C139.823 84.0378 138.459 82.6727 136.776 82.6727H40.3428C38.6599 82.6727 37.2959 84.0366 37.2959 85.7195Z" fill="black"/>
<path fill-rule="evenodd" clip-rule="evenodd" d="M15.3564 77.2645V94.1746C15.3564 95.8575 16.7204 97.2215 18.4033 97.2215C20.0851 97.2215 21.4502 95.8575 21.4502 94.1746V77.2645C21.4502 75.5827 20.0851 74.2176 18.4033 74.2176C16.7204 74.2176 15.3564 75.5815 15.3564 77.2645Z" fill="black"/>
<path fill-rule="evenodd" clip-rule="evenodd" d="M26.3252 77.2645V94.1746C26.3252 95.8575 27.6903 97.2215 29.3721 97.2215C31.055 97.2215 32.4189 95.8575 32.4189 94.1746V77.2645C32.4189 75.5827 31.055 74.2176 29.3721 74.2176C27.6903 74.2176 26.3252 75.5815 26.3252 77.2645Z" fill="#F13F00"/>
<path fill-rule="evenodd" clip-rule="evenodd" d="M152.953 51.3911C151.275 51.3911 149.906 52.7598 149.906 54.4391C149.906 56.1173 151.275 57.486 152.953 57.486C154.631 57.486 156 56.1173 156 54.4391C156 52.7598 154.631 51.3911 152.953 51.3911Z" fill="black"/>
</svg>
