<svg width="44" height="50" viewBox="0 0 44 50" fill="none" xmlns="http://www.w3.org/2000/svg">
<g clip-path="url(#clip0_1_4687)">
<path d="M38.9778 16.25L32.3816 12.2656C32.3816 12.2656 35.23 18.125 36.1295 20.1563C36.5042 21.0156 37.0289 22.0313 37.4037 23.0469C37.6286 23.75 37.7036 24.6875 37.7036 25.0781C37.7036 25.625 37.5536 27.0313 36.1295 27.8906L11.9932 42.2656C12.218 42.5781 13.2674 43.0469 14.2419 43.3594C17.9898 44.5313 21.4378 44.2969 24.8109 42.2656L39.2777 33.5156C42.126 31.7969 43.8501 28.75 44 25.3906C44.1499 21.6406 42.0511 18.125 38.9778 16.25Z" fill="black"/>
<path d="M9.44463 43.6719C8.84497 43.5156 8.17036 43.125 7.94549 42.9688C7.49574 42.6562 6.37138 41.875 6.37138 40.1563V11.7188C5.47189 12.1094 4.19762 12.9687 3.59796 13.5156C1.64906 15 0 18.125 0 21.7187V42.2656C0 42.7344 0.0749574 43.2031 0.29983 43.6719C2.32368 47.8906 5.92164 50 9.51959 50C11.1687 50 12.8177 49.5312 14.2419 48.6719L19.1141 45.7812C19.1141 45.7812 13.7922 44.9219 12.0681 44.4531C11.3186 44.2188 10.1193 43.8281 9.44463 43.6719Z" fill="black"/>
<path d="M27.0596 9.14162L14.4668 1.40725C11.6184 -0.311504 8.02044 -0.545879 5.0971 1.09475C1.87394 2.8135 0 6.17287 0 9.84475V16.0947C0 16.0947 3.37308 11.1729 4.87223 9.53225C5.84668 8.51662 7.12095 7.42287 7.72061 7.03225C8.02044 6.876 8.77002 6.5635 9.51959 6.5635C9.96934 6.5635 10.494 6.64162 11.0937 7.03225L32.9063 20.3135C32.9813 19.9229 32.9813 19.2979 32.9813 18.5947C32.6065 14.6104 30.3578 11.0947 27.0596 9.14162Z" fill="black"/>
</g>
<defs>
<clipPath id="clip0_1_4687">
<rect width="44" height="50" fill="white"/>
</clipPath>
</defs>
</svg>
