<svg width="198" height="47" viewBox="0 0 198 47" fill="none" xmlns="http://www.w3.org/2000/svg">
<path d="M6.94 6.7L11.11 21.25L15.22 6.7H21.37L14.02 28H8.2L0.76 6.7H6.94ZM22.5963 10.9V6.1H28.2963V10.9H22.5963ZM22.5963 28V12.22H28.2963V28H22.5963ZM30.3402 20.08C30.3402 18.52 30.6302 17.13 31.2102 15.91C31.8102 14.67 32.6302 13.7 33.6702 13C34.7102 12.28 35.9002 11.92 37.2402 11.92C38.2602 11.92 39.2002 12.16 40.0602 12.64C40.9202 13.1 41.5702 13.74 42.0102 14.56V6.1H47.7102V21.7C47.7102 22.24 47.7902 22.62 47.9502 22.84C48.1102 23.04 48.3902 23.16 48.7902 23.2V28C47.8102 28.2 47.0102 28.3 46.3902 28.3C44.4502 28.3 43.3302 27.57 43.0302 26.11L42.9102 25.54C42.3702 26.5 41.6402 27.2 40.7202 27.64C39.8002 28.08 38.8202 28.3 37.7802 28.3C36.3402 28.3 35.0602 27.95 33.9402 27.25C32.8202 26.55 31.9402 25.58 31.3002 24.34C30.6602 23.1 30.3402 21.68 30.3402 20.08ZM42.0402 21.88V19.06C41.7802 18.36 41.3702 17.8 40.8102 17.38C40.2702 16.94 39.7002 16.72 39.1002 16.72C38.2802 16.72 37.5902 17.06 37.0302 17.74C36.4902 18.42 36.2202 19.24 36.2202 20.2C36.2202 21.18 36.5102 21.98 37.0902 22.6C37.6702 23.2 38.4202 23.5 39.3402 23.5C40.4002 23.5 41.3002 22.96 42.0402 21.88ZM58.9014 28.3C57.0614 28.3 55.4914 27.93 54.1914 27.19C52.9114 26.45 51.9314 25.47 51.2514 24.25C50.5914 23.03 50.2614 21.72 50.2614 20.32C50.2614 18.8 50.5914 17.41 51.2514 16.15C51.9114 14.87 52.8814 13.85 54.1614 13.09C55.4414 12.31 57.0214 11.92 58.9014 11.92C60.7814 11.92 62.3614 12.3 63.6414 13.06C64.9214 13.82 65.8914 14.82 66.5514 16.06C67.2114 17.3 67.5414 18.65 67.5414 20.11C67.5414 20.73 67.4914 21.31 67.3914 21.85H56.3214C56.3814 22.69 56.6914 23.3 57.2514 23.68C57.8114 24.04 58.4214 24.22 59.0814 24.22C59.7014 24.22 60.2814 24.08 60.8214 23.8C61.3814 23.52 61.7514 23.13 61.9314 22.63L66.7614 24.01C66.1214 25.27 65.1314 26.3 63.7914 27.1C62.4514 27.9 60.8214 28.3 58.9014 28.3ZM56.2014 18.43H61.4214C61.3414 17.67 61.0614 17.07 60.5814 16.63C60.1214 16.19 59.5314 15.97 58.8114 15.97C58.0914 15.97 57.5014 16.19 57.0414 16.63C56.5814 17.07 56.3014 17.67 56.2014 18.43ZM77.1827 28.3C75.3027 28.3 73.7227 27.92 72.4427 27.16C71.1627 26.38 70.1927 25.37 69.5327 24.13C68.8727 22.89 68.5427 21.55 68.5427 20.11C68.5427 18.65 68.8727 17.3 69.5327 16.06C70.1927 14.82 71.1627 13.82 72.4427 13.06C73.7227 12.3 75.3027 11.92 77.1827 11.92C79.0627 11.92 80.6427 12.3 81.9227 13.06C83.2027 13.82 84.1727 14.82 84.8327 16.06C85.4927 17.3 85.8227 18.65 85.8227 20.11C85.8227 21.55 85.4927 22.89 84.8327 24.13C84.1727 25.37 83.2027 26.38 81.9227 27.16C80.6427 27.92 79.0627 28.3 77.1827 28.3ZM74.3927 20.11C74.3927 21.15 74.6527 21.98 75.1727 22.6C75.7127 23.2 76.3827 23.5 77.1827 23.5C78.0027 23.5 78.6727 23.2 79.1927 22.6C79.7127 21.98 79.9727 21.15 79.9727 20.11C79.9727 19.05 79.7127 18.22 79.1927 17.62C78.6727 17.02 78.0027 16.72 77.1827 16.72C76.3827 16.72 75.7127 17.02 75.1727 17.62C74.6527 18.22 74.3927 19.05 74.3927 20.11ZM110.149 22.9V28H94.9687V6.7H109.879V11.8H100.819V14.8H108.559V19.54H100.819V22.9H110.149ZM111.405 20.08C111.405 18.52 111.695 17.13 112.275 15.91C112.875 14.67 113.695 13.7 114.735 13C115.775 12.28 116.965 11.92 118.305 11.92C119.325 11.92 120.265 12.16 121.125 12.64C121.985 13.1 122.635 13.74 123.075 14.56V6.1H128.775V21.7C128.775 22.24 128.855 22.62 129.015 22.84C129.175 23.04 129.455 23.16 129.855 23.2V28C128.875 28.2 128.075 28.3 127.455 28.3C125.515 28.3 124.395 27.57 124.095 26.11L123.975 25.54C123.435 26.5 122.705 27.2 121.785 27.64C120.865 28.08 119.885 28.3 118.845 28.3C117.405 28.3 116.125 27.95 115.005 27.25C113.885 26.55 113.005 25.58 112.365 24.34C111.725 23.1 111.405 21.68 111.405 20.08ZM123.105 21.88V19.06C122.845 18.36 122.435 17.8 121.875 17.38C121.335 16.94 120.765 16.72 120.165 16.72C119.345 16.72 118.655 17.06 118.095 17.74C117.555 18.42 117.285 19.24 117.285 20.2C117.285 21.18 117.575 21.98 118.155 22.6C118.735 23.2 119.485 23.5 120.405 23.5C121.465 23.5 122.365 22.96 123.105 21.88ZM132.196 10.9V6.1H137.896V10.9H132.196ZM132.196 28V12.22H137.896V28H132.196ZM151.85 27.13C151.05 27.47 150.19 27.76 149.27 28C148.37 28.22 147.48 28.33 146.6 28.33C145.74 28.33 144.95 28.19 144.23 27.91C143.51 27.61 142.93 27.13 142.49 26.47C142.07 25.79 141.86 24.88 141.86 23.74V16.51H139.91V12.22H141.86V7.27H147.56V12.22H150.65V16.51H147.56V21.73C147.56 22.25 147.67 22.62 147.89 22.84C148.11 23.04 148.41 23.14 148.79 23.14C149.07 23.14 149.39 23.09 149.75 22.99C150.11 22.89 150.47 22.77 150.83 22.63L151.85 27.13ZM161.06 28.3C159.18 28.3 157.6 27.92 156.32 27.16C155.04 26.38 154.07 25.37 153.41 24.13C152.75 22.89 152.42 21.55 152.42 20.11C152.42 18.65 152.75 17.3 153.41 16.06C154.07 14.82 155.04 13.82 156.32 13.06C157.6 12.3 159.18 11.92 161.06 11.92C162.94 11.92 164.52 12.3 165.8 13.06C167.08 13.82 168.05 14.82 168.71 16.06C169.37 17.3 169.7 18.65 169.7 20.11C169.7 21.55 169.37 22.89 168.71 24.13C168.05 25.37 167.08 26.38 165.8 27.16C164.52 27.92 162.94 28.3 161.06 28.3ZM158.27 20.11C158.27 21.15 158.53 21.98 159.05 22.6C159.59 23.2 160.26 23.5 161.06 23.5C161.88 23.5 162.55 23.2 163.07 22.6C163.59 21.98 163.85 21.15 163.85 20.11C163.85 19.05 163.59 18.22 163.07 17.62C162.55 17.02 161.88 16.72 161.06 16.72C160.26 16.72 159.59 17.02 159.05 17.62C158.53 18.22 158.27 19.05 158.27 20.11ZM182.427 17.08C181.327 17.08 180.327 17.2 179.427 17.44C178.527 17.68 177.857 18.08 177.417 18.64V28H171.717V12.22H176.937V15.22C177.497 14.16 178.197 13.35 179.037 12.79C179.877 12.21 180.767 11.92 181.707 11.92C182.087 11.92 182.327 11.93 182.427 11.95V17.08ZM190.528 28.3C189.148 28.3 187.788 28.08 186.448 27.64C185.128 27.18 184.008 26.52 183.088 25.66L185.038 22.15C186.018 22.79 186.958 23.29 187.858 23.65C188.778 24.01 189.608 24.19 190.348 24.19C191.168 24.19 191.578 23.95 191.578 23.47C191.578 23.21 191.408 23 191.068 22.84C190.748 22.68 190.228 22.49 189.508 22.27C188.268 21.83 187.228 21.42 186.388 21.04C185.568 20.66 184.948 20.2 184.528 19.66C184.128 19.1 183.928 18.36 183.928 17.44C183.928 15.82 184.528 14.49 185.728 13.45C186.928 12.41 188.588 11.89 190.708 11.89C191.768 11.89 192.828 12.06 193.888 12.4C194.968 12.72 196.008 13.31 197.008 14.17L194.848 17.65C193.848 17.03 192.998 16.59 192.298 16.33C191.618 16.07 191.008 15.94 190.468 15.94C189.628 15.94 189.208 16.22 189.208 16.78C189.208 17.08 189.368 17.31 189.688 17.47C190.008 17.63 190.518 17.81 191.218 18.01C192.578 18.41 193.688 18.82 194.548 19.24C195.408 19.64 196.038 20.13 196.438 20.71C196.858 21.29 197.068 22.05 197.068 22.99C197.068 24.65 196.478 25.95 195.298 26.89C194.138 27.83 192.548 28.3 190.528 28.3Z" fill="black"/>
<path d="M8.81 45.06C8.27 45.06 7.78 44.96 7.34 44.76C6.9 44.5533 6.52 44.28 6.2 43.94C5.88667 43.5933 5.64333 43.2067 5.47 42.78C5.30333 42.3467 5.22 41.9 5.22 41.44C5.22 40.9667 5.31 40.5167 5.49 40.09C5.67 39.6633 5.92 39.2833 6.24 38.95C6.56667 38.61 6.95 38.3433 7.39 38.15C7.83667 37.9567 8.32333 37.86 8.85 37.86C9.39 37.86 9.88 37.9633 10.32 38.17C10.76 38.37 11.1367 38.6433 11.45 38.99C11.7633 39.3367 12.0033 39.7267 12.17 40.16C12.3433 40.5867 12.43 41.0267 12.43 41.48C12.43 41.9467 12.34 42.3933 12.16 42.82C11.9867 43.2467 11.7367 43.63 11.41 43.97C11.09 44.3033 10.71 44.57 10.27 44.77C9.83 44.9633 9.34333 45.06 8.81 45.06ZM7.2 41.46C7.2 41.7733 7.25667 42.0733 7.37 42.36C7.49 42.6467 7.67 42.88 7.91 43.06C8.15667 43.24 8.46333 43.33 8.83 43.33C9.21 43.33 9.51667 43.2367 9.75 43.05C9.99 42.8633 10.1667 42.6267 10.28 42.34C10.3933 42.0467 10.45 41.7467 10.45 41.44C10.45 41.12 10.39 40.82 10.27 40.54C10.15 40.26 9.97 40.0333 9.73 39.86C9.49 39.68 9.18667 39.59 8.82 39.59C8.44667 39.59 8.14 39.6833 7.9 39.87C7.66 40.05 7.48333 40.2833 7.37 40.57C7.25667 40.85 7.2 41.1467 7.2 41.46ZM19.1565 45.06C18.5898 45.06 18.1032 44.9667 17.6965 44.78C17.2898 44.5933 16.9565 44.3367 16.6965 44.01C16.4432 43.6833 16.2565 43.31 16.1365 42.89C16.0165 42.4633 15.9565 42.0167 15.9565 41.55V37.9H17.9065V41.55C17.9065 41.8633 17.9465 42.1567 18.0265 42.43C18.1132 42.6967 18.2465 42.9133 18.4265 43.08C18.6132 43.2467 18.8565 43.33 19.1565 43.33C19.4632 43.33 19.7065 43.2467 19.8865 43.08C20.0732 42.9067 20.2065 42.6867 20.2865 42.42C20.3732 42.1467 20.4165 41.8567 20.4165 41.55V37.9H22.3665V41.55C22.3665 42.21 22.2498 42.8067 22.0165 43.34C21.7898 43.8667 21.4398 44.2867 20.9665 44.6C20.4932 44.9067 19.8898 45.06 19.1565 45.06ZM26.2881 45V37.9H29.5481C29.8948 37.9 30.2148 37.97 30.5081 38.11C30.8015 38.25 31.0548 38.44 31.2681 38.68C31.4815 38.9133 31.6448 39.1767 31.7581 39.47C31.8781 39.7633 31.9381 40.06 31.9381 40.36C31.9381 40.7667 31.8481 41.15 31.6681 41.51C31.4881 41.87 31.2381 42.1633 30.9181 42.39L32.4181 45H30.2781L29.0281 42.82H28.2381V45H26.2881ZM28.2381 41.12H29.4681C29.5881 41.12 29.6981 41.0533 29.7981 40.92C29.9048 40.7867 29.9581 40.6 29.9581 40.36C29.9581 40.1133 29.8981 39.9267 29.7781 39.8C29.6581 39.6667 29.5381 39.6 29.4181 39.6H28.2381V41.12ZM40.8823 45V37.9H42.8323V45H40.8823ZM52.2261 45V41.26L51.0361 43.89H49.9961L48.8061 41.26V45H46.8561V37.9H48.9861L50.5161 41.24L52.0561 37.9H54.1761V45H52.2261ZM59.8312 37.9H62.0112L64.2712 45H62.2912L61.8612 43.61H59.9712L59.5512 45H57.5612L59.8312 37.9ZM61.5512 42.31L60.9212 39.81L60.2612 42.31H61.5512ZM70.4382 45.05C69.9782 45.05 69.5382 44.97 69.1182 44.81C68.7049 44.6433 68.3382 44.4033 68.0182 44.09C67.6982 43.77 67.4449 43.3867 67.2582 42.94C67.0782 42.4867 66.9882 41.97 66.9882 41.39C66.9882 40.89 67.0815 40.4267 67.2682 40C67.4549 39.5733 67.7115 39.2 68.0382 38.88C68.3715 38.5533 68.7582 38.3 69.1982 38.12C69.6382 37.94 70.1149 37.85 70.6282 37.85C71.2682 37.85 71.8482 37.99 72.3682 38.27C72.8882 38.5433 73.2749 38.92 73.5282 39.4L72.0782 40.51C71.9382 40.23 71.7282 40.0067 71.4482 39.84C71.1682 39.6667 70.8715 39.58 70.5582 39.58C70.2515 39.58 69.9782 39.66 69.7382 39.82C69.4982 39.98 69.3082 40.2033 69.1682 40.49C69.0349 40.77 68.9682 41.0933 68.9682 41.46C68.9682 42.0133 69.1182 42.4633 69.4182 42.81C69.7249 43.15 70.1215 43.32 70.6082 43.32C71.1615 43.32 71.6615 43.0867 72.1082 42.62H70.8782V41.22H73.7982V45H72.1882V44.41C71.6815 44.8367 71.0982 45.05 70.4382 45.05ZM82.6208 43.3V45H77.5608V37.9H82.5308V39.6H79.5108V40.6H82.0908V42.18H79.5108V43.3H82.6208ZM91.2637 43.09V41.39H99.7437V43.09H91.2637ZM109.771 37.9L111.041 40.8L112.341 37.9H114.461L112.011 42.65V45H110.071V42.63L107.661 37.9H109.771ZM120.532 45.06C119.992 45.06 119.502 44.96 119.062 44.76C118.622 44.5533 118.242 44.28 117.922 43.94C117.609 43.5933 117.366 43.2067 117.192 42.78C117.026 42.3467 116.942 41.9 116.942 41.44C116.942 40.9667 117.032 40.5167 117.212 40.09C117.392 39.6633 117.642 39.2833 117.962 38.95C118.289 38.61 118.672 38.3433 119.112 38.15C119.559 37.9567 120.046 37.86 120.572 37.86C121.112 37.86 121.602 37.9633 122.042 38.17C122.482 38.37 122.859 38.6433 123.172 38.99C123.486 39.3367 123.726 39.7267 123.892 40.16C124.066 40.5867 124.152 41.0267 124.152 41.48C124.152 41.9467 124.062 42.3933 123.882 42.82C123.709 43.2467 123.459 43.63 123.132 43.97C122.812 44.3033 122.432 44.57 121.992 44.77C121.552 44.9633 121.066 45.06 120.532 45.06ZM118.922 41.46C118.922 41.7733 118.979 42.0733 119.092 42.36C119.212 42.6467 119.392 42.88 119.632 43.06C119.879 43.24 120.186 43.33 120.552 43.33C120.932 43.33 121.239 43.2367 121.472 43.05C121.712 42.8633 121.889 42.6267 122.002 42.34C122.116 42.0467 122.172 41.7467 122.172 41.44C122.172 41.12 122.112 40.82 121.992 40.54C121.872 40.26 121.692 40.0333 121.452 39.86C121.212 39.68 120.909 39.59 120.542 39.59C120.169 39.59 119.862 39.6833 119.622 39.87C119.382 40.05 119.206 40.2833 119.092 40.57C118.979 40.85 118.922 41.1467 118.922 41.46ZM130.879 45.06C130.312 45.06 129.825 44.9667 129.419 44.78C129.012 44.5933 128.679 44.3367 128.419 44.01C128.165 43.6833 127.979 43.31 127.859 42.89C127.739 42.4633 127.679 42.0167 127.679 41.55V37.9H129.629V41.55C129.629 41.8633 129.669 42.1567 129.749 42.43C129.835 42.6967 129.969 42.9133 130.149 43.08C130.335 43.2467 130.579 43.33 130.879 43.33C131.185 43.33 131.429 43.2467 131.609 43.08C131.795 42.9067 131.929 42.6867 132.009 42.42C132.095 42.1467 132.139 41.8567 132.139 41.55V37.9H134.089V41.55C134.089 42.21 133.972 42.8067 133.739 43.34C133.512 43.8667 133.162 44.2867 132.689 44.6C132.215 44.9067 131.612 45.06 130.879 45.06ZM138.01 45V37.9H141.27C141.617 37.9 141.937 37.97 142.23 38.11C142.524 38.25 142.777 38.44 142.99 38.68C143.204 38.9133 143.367 39.1767 143.48 39.47C143.6 39.7633 143.66 40.06 143.66 40.36C143.66 40.7667 143.57 41.15 143.39 41.51C143.21 41.87 142.96 42.1633 142.64 42.39L144.14 45H142L140.75 42.82H139.96V45H138.01ZM139.96 41.12H141.19C141.31 41.12 141.42 41.0533 141.52 40.92C141.627 40.7867 141.68 40.6 141.68 40.36C141.68 40.1133 141.62 39.9267 141.5 39.8C141.38 39.6667 141.26 39.6 141.14 39.6H139.96V41.12ZM156.905 40.22C156.905 40.22 156.848 40.1867 156.735 40.12C156.621 40.0533 156.471 39.98 156.285 39.9C156.098 39.8133 155.895 39.7367 155.675 39.67C155.455 39.6033 155.238 39.57 155.025 39.57C154.858 39.57 154.721 39.5967 154.615 39.65C154.508 39.7033 154.455 39.7933 154.455 39.92C154.455 40.1067 154.571 40.24 154.805 40.32C155.045 40.3933 155.368 40.4967 155.775 40.63C156.215 40.7633 156.595 40.9167 156.915 41.09C157.235 41.2633 157.481 41.4867 157.655 41.76C157.828 42.0267 157.915 42.3833 157.915 42.83C157.915 43.2567 157.838 43.6167 157.685 43.91C157.531 44.1967 157.325 44.4267 157.065 44.6C156.805 44.7733 156.515 44.9 156.195 44.98C155.875 45.0533 155.548 45.09 155.215 45.09C154.875 45.09 154.518 45.0567 154.145 44.99C153.778 44.9167 153.421 44.82 153.075 44.7C152.728 44.5733 152.411 44.4267 152.125 44.26L152.965 42.55C152.965 42.55 153.031 42.59 153.165 42.67C153.298 42.75 153.475 42.84 153.695 42.94C153.915 43.04 154.158 43.13 154.425 43.21C154.698 43.29 154.971 43.33 155.245 43.33C155.458 43.33 155.605 43.3033 155.685 43.25C155.771 43.19 155.815 43.1133 155.815 43.02C155.815 42.88 155.741 42.7733 155.595 42.7C155.448 42.62 155.255 42.5467 155.015 42.48C154.781 42.4067 154.521 42.3233 154.235 42.23C153.608 42.0167 153.151 41.7633 152.865 41.47C152.578 41.17 152.435 40.76 152.435 40.24C152.435 39.7133 152.558 39.2733 152.805 38.92C153.051 38.5667 153.375 38.3 153.775 38.12C154.181 37.9333 154.618 37.84 155.085 37.84C155.431 37.84 155.765 37.8833 156.085 37.97C156.411 38.05 156.715 38.15 156.995 38.27C157.281 38.39 157.531 38.5033 157.745 38.61L156.905 40.22ZM167.106 39.6H165.066V45H163.116V39.6H161.066V37.9H167.106V39.6ZM173.709 45.06C173.169 45.06 172.679 44.96 172.239 44.76C171.799 44.5533 171.419 44.28 171.099 43.94C170.786 43.5933 170.543 43.2067 170.369 42.78C170.203 42.3467 170.119 41.9 170.119 41.44C170.119 40.9667 170.209 40.5167 170.389 40.09C170.569 39.6633 170.819 39.2833 171.139 38.95C171.466 38.61 171.849 38.3433 172.289 38.15C172.736 37.9567 173.223 37.86 173.749 37.86C174.289 37.86 174.779 37.9633 175.219 38.17C175.659 38.37 176.036 38.6433 176.349 38.99C176.663 39.3367 176.903 39.7267 177.069 40.16C177.243 40.5867 177.329 41.0267 177.329 41.48C177.329 41.9467 177.239 42.3933 177.059 42.82C176.886 43.2467 176.636 43.63 176.309 43.97C175.989 44.3033 175.609 44.57 175.169 44.77C174.729 44.9633 174.243 45.06 173.709 45.06ZM172.099 41.46C172.099 41.7733 172.156 42.0733 172.269 42.36C172.389 42.6467 172.569 42.88 172.809 43.06C173.056 43.24 173.363 43.33 173.729 43.33C174.109 43.33 174.416 43.2367 174.649 43.05C174.889 42.8633 175.066 42.6267 175.179 42.34C175.293 42.0467 175.349 41.7467 175.349 41.44C175.349 41.12 175.289 40.82 175.169 40.54C175.049 40.26 174.869 40.0333 174.629 39.86C174.389 39.68 174.086 39.59 173.719 39.59C173.346 39.59 173.039 39.6833 172.799 39.87C172.559 40.05 172.383 40.2833 172.269 40.57C172.156 40.85 172.099 41.1467 172.099 41.46ZM180.956 45V37.9H184.216C184.562 37.9 184.882 37.97 185.176 38.11C185.469 38.25 185.722 38.44 185.936 38.68C186.149 38.9133 186.312 39.1767 186.426 39.47C186.546 39.7633 186.606 40.06 186.606 40.36C186.606 40.7667 186.516 41.15 186.336 41.51C186.156 41.87 185.906 42.1633 185.586 42.39L187.086 45H184.946L183.696 42.82H182.906V45H180.956ZM182.906 41.12H184.136C184.256 41.12 184.366 41.0533 184.466 40.92C184.572 40.7867 184.626 40.6 184.626 40.36C184.626 40.1133 184.566 39.9267 184.446 39.8C184.326 39.6667 184.206 39.6 184.086 39.6H182.906V41.12ZM191.524 37.9L192.794 40.8L194.094 37.9H196.214L193.764 42.65V45H191.824V42.63L189.414 37.9H191.524Z" fill="black"/>
</svg>
