<svg width="173" height="169" viewBox="0 0 173 169" fill="none" xmlns="http://www.w3.org/2000/svg">
<path d="M30.5582 0H142.006C158.903 0 172.564 13.6613 172.564 30.5582V137.692C172.564 154.589 158.903 168.25 142.006 168.25H30.5582C13.6613 168.25 0 154.589 0 137.692V30.5582C0 13.6613 13.6613 0 30.5582 0Z" fill="#00005B"/>
<path d="M69.313 100.662H42.5655L37.101 117.631C36.9572 118.278 36.382 118.71 35.7349 118.638H22.2173C21.4264 118.638 21.2107 118.206 21.4264 117.344L44.5788 50.9784C44.7945 50.2594 45.0102 49.6123 45.2978 48.7494C45.5854 47.2395 45.7292 45.6577 45.7292 44.0758C45.6573 43.7163 45.9449 43.3568 46.3044 43.2849H46.5201H64.927C65.4303 43.2849 65.7898 43.5006 65.8617 43.8601L92.1058 117.2C92.3215 117.991 92.1058 118.35 91.3868 118.35H76.3593C75.856 118.422 75.3527 118.063 75.2089 117.559L69.313 100.303V100.662ZM46.7358 86.354H64.9989C64.5675 84.8441 63.9922 83.0466 63.3451 81.1771C62.698 79.2358 62.0509 77.1506 61.4038 74.9936C60.6848 72.7646 60.0376 70.6076 59.3186 68.3786C58.5996 66.1497 57.9525 64.0645 57.3773 61.9794C56.8021 59.9661 56.2988 58.0967 55.7954 56.371H55.6516C55.0045 59.4628 54.2136 62.5546 53.207 65.6463C52.1285 69.0976 51.0499 72.6927 49.8995 76.2878C48.9648 79.9548 47.8144 83.3342 46.7358 86.354Z" fill="#9999FF"/>
<path d="M134.456 94.1914H111.663C111.95 96.4203 112.669 98.6493 113.892 100.591C115.186 102.532 116.984 104.042 119.141 104.905C122.017 106.127 125.18 106.774 128.344 106.702C130.861 106.63 133.377 106.415 135.822 105.911C138.051 105.624 140.208 105.049 142.221 104.258C142.581 103.97 142.796 104.114 142.796 104.833V115.834C142.796 116.121 142.724 116.409 142.653 116.697C142.509 116.912 142.365 117.056 142.149 117.2C139.848 118.207 137.476 118.926 134.959 119.357C131.58 120.004 128.2 120.292 124.749 120.22C119.284 120.22 114.683 119.357 110.944 117.703C107.421 116.193 104.329 113.821 101.884 110.873C99.5834 108.068 97.9297 104.905 96.923 101.453C95.9164 98.0741 95.4131 94.5509 95.4131 90.9558C95.4131 87.0731 95.9883 83.2623 97.2106 79.5234C98.3611 75.9284 100.159 72.6209 102.603 69.6729C104.976 66.7968 107.924 64.496 111.303 62.8422C114.683 61.1885 118.709 60.6133 123.311 60.6133C127.122 60.5414 130.933 61.2604 134.456 62.8422C137.404 64.1365 139.992 66.0778 142.005 68.5944C143.875 71.039 145.385 73.7713 146.319 76.7912C147.254 79.6672 147.686 82.6152 147.686 85.5632C147.686 87.2888 147.614 88.7988 147.542 90.1649C147.398 91.531 147.326 92.5377 147.254 93.1848C147.182 93.6881 146.751 94.1195 146.248 94.1195C145.816 94.1195 145.025 94.1914 143.875 94.2633C142.724 94.4071 141.358 94.479 139.705 94.479C138.051 94.479 136.325 94.1914 134.456 94.1914ZM111.663 83.6937H126.834C128.704 83.6937 130.07 83.6937 130.933 83.6218C131.508 83.5499 132.083 83.4061 132.586 83.0466V82.3276C132.586 81.3929 132.442 80.5301 132.155 79.6672C130.861 75.6408 127.05 72.9085 122.808 73.0523C118.853 72.8366 115.114 74.9217 113.245 78.5168C112.382 80.1706 111.879 81.8962 111.663 83.6937Z" fill="#9999FF"/>
</svg>
