<svg width="173" height="168" viewBox="0 0 173 168" fill="none" xmlns="http://www.w3.org/2000/svg">
<path d="M30.5088 0H141.792C158.659 0 172.301 13.6416 172.301 30.5088V137.491C172.301 154.358 158.659 168 141.792 168H30.5088C13.6416 168 0 154.358 0 137.491V30.5088C0 13.6416 13.6416 0 30.5088 0Z" fill="#00005B"/>
<path d="M67.6703 100.531H40.9919L35.5487 117.466C35.4143 118.138 34.8095 118.541 34.2047 118.474H20.6975C19.8911 118.474 19.6895 118.07 19.8911 117.197L43.0079 50.8032C43.2095 50.064 43.4111 49.3248 43.7471 48.4512C44.0831 46.9728 44.3519 45.4272 44.3519 43.8816C44.2847 43.5456 44.5535 43.1424 44.9567 43.0752C45.0239 43.0752 45.0911 43.0752 45.1583 43.0752H63.5711C64.0415 43.0752 64.4447 43.2768 64.5119 43.68L90.5855 117.331C90.7871 118.138 90.5855 118.474 89.8463 118.474H74.8607C74.3903 118.541 73.8527 118.205 73.7183 117.667L67.6703 100.531ZM45.1583 86.2176H63.3695C62.9663 84.7392 62.3615 82.9248 61.6895 81.0432C61.0175 79.0944 60.4127 77.0112 59.7407 74.8608C59.0015 72.6432 58.3967 70.4928 57.6575 68.2752C56.9183 66.0576 56.3135 63.9744 55.7087 61.8912C55.1039 59.8752 54.6335 57.9936 54.0959 56.3136H53.9615C53.2895 59.4048 52.5503 62.496 51.5423 65.5872C50.4671 69.0144 49.3919 72.6432 48.2495 76.2048C47.3759 79.8336 46.2335 83.1936 45.1583 86.2176Z" fill="#9999FF"/>
<path d="M145.622 61.8913V105.907C145.622 107.856 145.622 109.536 145.69 111.082C145.757 112.56 145.824 113.904 145.891 115.047C146.026 116.189 146.093 116.861 146.16 117.6C146.227 118.272 145.958 118.541 145.354 118.541H133.056C132.451 118.608 131.914 118.272 131.712 117.735C131.578 117.13 131.443 116.525 131.309 115.92C131.174 115.45 131.174 114.912 131.174 114.442C128.89 116.525 126.067 118.003 123.043 118.877C120.49 119.616 117.734 119.952 115.046 119.952C112.358 119.952 109.738 119.616 107.251 118.743C104.966 117.936 102.816 116.592 101.136 114.778C99.2544 112.762 97.9104 110.41 97.104 107.789C96.096 104.496 95.6256 101.069 95.6928 97.5745V61.9585C95.6256 61.5553 95.8944 61.0849 96.432 61.0177C96.4992 61.0177 96.5664 61.0177 96.6336 61.0177H110.342C110.746 60.9505 111.216 61.2193 111.283 61.7569C111.283 61.8241 111.283 61.8913 111.283 61.9585V95.6929C111.283 98.8513 112.022 101.338 113.366 103.152C114.71 104.967 117.533 105.907 120.758 105.907C122.438 105.907 124.051 105.639 125.664 105.034C127.344 104.429 128.822 103.69 130.166 102.682V61.8913C130.166 61.4209 130.502 61.0849 131.174 61.0849H144.883C145.219 61.0177 145.69 61.2865 145.69 61.6897C145.622 61.7569 145.622 61.8241 145.622 61.8913Z" fill="#9999FF"/>
</svg>
