<svg width="35" height="36" viewBox="0 0 35 36" fill="none" xmlns="http://www.w3.org/2000/svg">
<path fill-rule="evenodd" clip-rule="evenodd" d="M17.4956 0.449707H17.5044C27.1534 0.449707 35 8.30064 35 17.9497C35 27.5988 27.1534 35.4497 17.5044 35.4497C13.9453 35.4497 10.6444 34.391 7.87719 32.5578L1.15062 34.7081L3.33156 28.2069C1.23375 25.326 0 21.7778 0 17.9497C0 8.29846 7.84656 0.449707 17.4956 0.449707ZM24.2531 27.6318C25.5897 27.343 27.2653 26.3543 27.6875 25.1621C28.1097 23.9677 28.1097 22.9505 27.9872 22.734C27.8883 22.5621 27.6544 22.4495 27.3052 22.2814C27.2143 22.2376 27.1156 22.1901 27.0094 22.1368C26.4953 21.8808 23.995 20.6449 23.5225 20.4808C23.0588 20.3058 22.6169 20.3671 22.2669 20.8615C22.2003 20.9547 22.1339 21.0481 22.0679 21.141C21.6456 21.7348 21.2383 22.3076 20.8997 22.6727C20.5913 23.0008 20.0882 23.0424 19.666 22.8674C19.6199 22.8482 19.5672 22.8269 19.5081 22.803C18.8396 22.5331 17.357 21.9342 15.5622 20.3365C14.0485 18.989 13.0203 17.3112 12.7228 16.808C12.4307 16.3033 12.6827 16.0074 12.9156 15.7338C12.9199 15.7288 12.9242 15.7237 12.9285 15.7187C13.0786 15.5329 13.2243 15.3782 13.3707 15.2228C13.476 15.111 13.5817 14.9988 13.6897 14.8743C13.7058 14.8558 13.7214 14.8379 13.7365 14.8204C13.9659 14.5567 14.1024 14.3997 14.2563 14.0715C14.4313 13.7324 14.3066 13.3824 14.1819 13.1243C14.0961 12.9435 13.5662 11.6577 13.1112 10.554C12.9166 10.0816 12.7356 9.64257 12.6091 9.33772C12.27 8.52616 12.0119 8.49554 11.4978 8.47366C11.4821 8.47287 11.4662 8.47207 11.4501 8.47126C11.2876 8.46303 11.1087 8.45397 10.9116 8.45397C10.2422 8.45397 9.5444 8.65085 9.12222 9.08179C9.10746 9.09685 9.09208 9.11249 9.07613 9.12872C8.53601 9.67803 7.33284 10.9017 7.33284 13.3408C7.33284 15.7847 9.06689 18.1499 9.38773 18.5875C9.39657 18.5996 9.40434 18.6102 9.41097 18.6193C9.43027 18.6446 9.46666 18.6973 9.51961 18.774C10.1747 19.7227 13.3656 24.3436 18.1238 26.3149C22.1444 27.9818 23.3388 27.8265 24.2531 27.6318Z" fill="#F13F00"/>
</svg>
