<svg width="35" height="36" viewBox="0 0 35 36" fill="none" xmlns="http://www.w3.org/2000/svg">
<path d="M33.3969 19.7099C33.4706 19.0979 33.5075 18.4821 33.5075 17.8656C33.4514 8.99162 26.253 1.83809 17.4168 1.87529C16.8036 1.88166 16.1913 1.92509 15.5833 2.00537C10.8126 -0.988373 4.5286 0.468734 1.54767 5.25997C-0.536044 8.6091 -0.514149 12.8637 1.60401 16.191C1.53096 16.8025 1.49446 17.4178 1.49487 18.0338C1.55019 26.9078 8.74799 34.0621 17.5842 34.0256C18.1978 34.0192 18.8106 33.9757 19.4191 33.8955C24.1906 36.888 30.4742 35.4291 33.4538 30.637C35.5358 27.2887 35.5136 23.0362 33.3969 19.7099ZM17.5608 29.6473C11.9121 29.6766 8.81265 26.3139 8.80392 24.5778V23.8471C8.79499 22.6365 9.76492 21.6479 10.9703 21.6388C12.1132 21.6303 13.0692 22.5086 13.162 23.6527C13.7309 24.7765 15.7492 25.2719 17.5419 25.2602C17.7209 25.2602 21.9072 25.2032 21.8912 22.3141C21.8912 20.9185 20.0345 20.3573 16.9889 19.5974C13.3249 18.6811 8.77036 17.5442 8.74417 12.8809C8.71218 6.98567 13.2812 6.28134 16.7124 6.26229C21.5754 6.23743 24.7258 8.22933 24.7417 11.3347C24.7516 12.5454 23.7824 13.5348 22.5771 13.5447C21.4754 13.5539 20.5397 12.737 20.3953 11.6402C19.3042 10.8638 17.97 10.5107 16.6396 10.6464C15.7728 10.5893 14.9031 10.6964 14.0757 10.9621C13.6217 11.1652 13.1022 11.5641 13.108 12.8618C13.108 13.9462 15.3038 14.5468 17.6189 15.1825C21.4531 16.2332 26.2244 17.5426 26.2492 22.2921C26.2768 26.7274 22.8661 29.6136 17.5621 29.6414L17.5608 29.6473Z" fill="#F13F00"/>
</svg>
