<svg width="35" height="36" viewBox="0 0 35 36" fill="none" xmlns="http://www.w3.org/2000/svg">
<path fill-rule="evenodd" clip-rule="evenodd" d="M35 17.9497C35 27.6147 27.165 35.4497 17.5 35.4497C7.83502 35.4497 0 27.6147 0 17.9497C0 8.28472 7.83502 0.449707 17.5 0.449707C27.165 0.449707 35 8.28472 35 17.9497ZM24.8806 11.065L8.00773 17.5706C6.85127 18.0227 6.87168 18.6629 7.80939 18.9604L12.129 20.3079L22.1492 13.9992C22.6144 13.69 23.0461 13.865 22.6931 14.1756L14.5848 21.5008L14.2742 25.9531C14.7263 25.9531 14.9231 25.7562 15.1565 25.5229L17.2667 23.49L21.6417 26.7144C22.4394 27.1665 23.0096 26.9331 23.2225 25.9735L26.0954 12.4387L26.094 12.4402C26.3477 11.256 25.6638 10.7821 24.8806 11.065Z" fill="#F13F00"/>
</svg>
