<svg width="37" height="38" viewBox="0 0 37 38" fill="none" xmlns="http://www.w3.org/2000/svg">
<path d="M18.5 37.4497C28.7173 37.4497 37 29.167 37 18.9497C37 8.73244 28.7173 0.449707 18.5 0.449707C8.28273 0.449707 0 8.73244 0 18.9497C0 29.167 8.28273 37.4497 18.5 37.4497Z" fill="#F13F00"/>
<path d="M31.9098 22.8172C32.7946 15.29 31.4847 10.538 29.1218 8.38863L29.1231 8.38738C25.3094 4.71686 12.4299 4.17359 7.8673 8.55223C5.81834 10.6941 5.09664 13.8376 5.01754 17.7291C4.93845 21.622 4.84453 28.9143 11.5685 30.8925H11.5747L11.5685 33.9136C11.5685 33.9136 11.5228 35.1375 12.2964 35.3836C13.1812 35.6733 13.5816 35.1051 16.3338 31.783C20.9359 32.1864 24.4703 31.2622 24.8719 31.1273C25.8012 30.8126 31.0596 30.1095 31.9098 22.8172ZM16.7873 29.6574C16.7873 29.6574 13.8745 33.3279 12.9687 34.2808C12.6721 34.5905 12.3471 34.5618 12.352 33.9473C12.352 33.5439 12.3743 28.9318 12.3743 28.9318C6.67352 27.2807 7.00965 21.0712 7.07144 17.8228C7.13323 14.5732 7.72147 11.9118 9.45654 10.1196C13.4593 6.32669 24.7508 7.1747 27.6277 9.90729C31.1448 13.0583 29.893 21.9604 29.9004 22.2639C29.1774 28.351 24.9164 28.7369 24.1329 29.0004C23.798 29.1128 20.69 29.9209 16.7873 29.6574Z" fill="white"/>
<path d="M18.3988 10.8327C17.923 10.8327 17.923 11.5821 18.3988 11.5883C22.0901 11.617 25.1302 14.2172 25.1635 18.9868C25.1635 19.4901 25.8927 19.4838 25.8865 18.9805H25.8853C25.8457 13.8413 22.5263 10.8614 18.3988 10.8327Z" fill="white"/>
<path d="M23.2542 18.1962C23.2431 18.6933 23.971 18.717 23.9772 18.2137C24.0377 15.3799 22.3089 13.0457 19.0599 12.7997C18.5842 12.7647 18.5347 13.5203 19.0093 13.5553C21.8269 13.7714 23.3111 15.7146 23.2542 18.1962Z" fill="white"/>
<path d="M22.4757 21.4196C21.8652 21.0624 21.2436 21.2847 20.9865 21.6356L20.449 22.3388C20.1759 22.696 19.6655 22.6485 19.6655 22.6485C15.9408 21.6531 14.9447 17.7141 14.9447 17.7141C14.9447 17.7141 14.899 17.1808 15.2401 16.8948L15.9124 16.3328C16.2485 16.0631 16.4611 15.4136 16.1187 14.7754C15.2042 13.1057 14.59 12.5299 14.2774 12.0878C13.9487 11.6719 13.4543 11.5783 12.9403 11.8593H12.9291C11.8602 12.4912 10.6899 13.6739 11.0643 14.8916C11.7032 16.1755 12.8772 20.2681 16.6192 23.3604C18.3778 24.8228 21.1608 26.3215 22.3422 26.6675L22.3533 26.6849C23.5175 27.0771 24.6495 25.8482 25.2538 24.7354V24.7267C25.5219 24.1884 25.433 23.6788 25.0412 23.3454C24.3467 22.661 23.2987 21.9054 22.4757 21.4196Z" fill="white"/>
<path d="M19.5691 15.5874C20.7567 15.6573 21.3326 16.2842 21.3944 17.5719C21.4166 18.0752 22.1396 18.0402 22.1173 17.5369C22.0382 15.8559 21.1707 14.9192 19.6086 14.8318C19.1328 14.8031 19.0884 15.5586 19.5691 15.5874Z" fill="white"/>
</svg>
